<?xml version="1.0" standalone="no"?>
<!DOCTYPE svg PUBLIC "-//W3C//DTD SVG 1.1//EN"
  "http://www.w3.org/Graphics/SVG/1.1/DTD/svg11.dtd">
<svg width="172mm" height="171.99999999999997mm" viewBox="-86 -85.99999999999999 172 171.99999999999997" xmlns="http://www.w3.org/2000/svg" version="1.1">
	<title>svgOutput</title>
	<desc>made with tinkercad</desc>
<path d="M -85 -84.99999999999999 L -50.7734489440918 -84.99999999999999 L 30.253707885742188 -84.99999999999999 L 85 -84.99999999999999 L 85 -45.22585678100585 L 85 -20.72900009155273 L 85 1.1102230246251565e-16 L 85 32.76800155639648 L 85 49.15200042724608 L 85 65.53600311279295 L 85 84.99999999999999 L 65.53600311279297 84.99999999999999 L 49.152000427246094 84.99999999999999 L 32.768001556396484 84.99999999999999 L 0 84.99999999999999 L -75 84.99999999999999 L -85 84.99999999999999 L -85 1.1102230246251565e-16 L -85 -5.717333316802978 L -85 -84.99999999999999 M 65.9469985961914 23.524000167846676 L 65.53600311279297 23.142625808715817 L 64.85099792480469 22.50699996948242 L 63.70500183105469 21.54500007629394 L 62.512001037597656 20.642000198364254 L 61.2760009765625 19.79899978637695 L 60 19.01899909973144 L 58.68600082397461 18.304000854492184 L 57.3390007019043 17.655000686645504 L 55.959999084472656 17.073999404907223 L 54.55500030517578 16.5620002746582 L 53.97780990600586 16.38400077819824 L 53.125 16.12100028991699 L 51.67599868774414 15.7519998550415 L 50.20899963378906 15.456000328063961 L 48.72999954223633 15.232999801635739 L 47.242000579833984 15.083999633789059 L 45.74800109863281 15.008999824523922 L 44.25199890136719 15.008999824523922 L 42.757999420166016 15.083999633789059 L 41.27000045776367 15.232999801635739 L 39.79100036621094 15.456000328063961 L 38.32400131225586 15.7519998550415 L 36.875 16.12100028991699 L 36.02219009399414 16.38400077819824 L 35.44499969482422 16.5620002746582 L 34.040000915527344 17.073999404907223 L 32.768001556396484 17.609918594360348 L 32.6609992980957 17.655000686645504 L 31.31399917602539 18.304000854492184 L 30 19.01899909973144 L 28.724000930786133 19.79899978637695 L 27.488000869750977 20.642000198364254 L 26.295000076293945 21.54500007629394 L 25.14900016784668 22.50699996948242 L 24.05299949645996 23.524000167846676 L 23.007999420166016 24.594999313354485 L 22.018999099731445 25.715999603271477 L 21.086000442504883 26.885999679565423 L 20.21299934387207 28.10000038146972 L 19.400999069213867 29.35700035095214 L 18.652999877929688 30.652000427246087 L 17.97100067138672 31.982999801635735 L 17.6170597076416 32.76800155639648 L 17.356000900268555 33.347000122070305 L 16.80900001525879 34.73899841308593 L 16.33300018310547 36.15700149536132 L 15.928000450134277 37.597000122070305 L 15.595000267028809 39.05599975585937 L 15.335000038146973 40.528999328613274 L 15.14900016784668 42.01300048828124 L 15.036999702453613 43.50500106811523 L 15 44.99999999999999 L 15.036999702453613 46.49499893188476 L 15.14900016784668 47.98699951171874 L 15.29501724243164 49.15200042724608 L 15.335000038146973 49.471000671386705 L 15.595000267028809 50.94400024414061 L 15.928000450134277 52.40299987792967 L 16.33300018310547 53.84299850463866 L 16.80900001525879 55.26100158691405 L 17.356000900268555 56.65299987792967 L 17.97100067138672 58.01699829101561 L 18.652999877929688 59.34799957275389 L 19.400999069213867 60.64300155639647 L 20.21299934387207 61.90000152587889 L 21.086000442504883 63.11399841308592 L 22.018999099731445 64.28399658203124 L 23.007999420166016 65.40499877929686 L 23.135820388793945 65.53600311279295 L 24.05299949645996 66.47599792480467 L 25.14900016784668 67.4929962158203 L 26.295000076293945 68.45500183105467 L 27.488000869750977 69.35800170898436 L 28.724000930786133 70.20099639892577 L 30 70.98100280761717 L 31.31399917602539 71.6959991455078 L 32.6609992980957 72.34500122070311 L 32.768001556396484 72.39008331298827 L 34.040000915527344 72.92600250244139 L 35.44499969482422 73.43800354003905 L 36.875 73.87899780273436 L 38.32400131225586 74.2480010986328 L 39.79100036621094 74.5439987182617 L 41.27000045776367 74.76699829101561 L 42.757999420166016 74.91600036621092 L 44.25199890136719 74.99099731445311 L 45.74800109863281 74.99099731445311 L 47.242000579833984 74.91600036621092 L 48.72999954223633 74.76699829101561 L 49.152000427246094 74.70336914062499 L 50.20899963378906 74.5439987182617 L 51.67599868774414 74.2480010986328 L 53.125 73.87899780273436 L 54.55500030517578 73.43800354003905 L 55.959999084472656 72.92600250244139 L 57.3390007019043 72.34500122070311 L 58.68600082397461 71.6959991455078 L 60 70.98100280761717 L 61.2760009765625 70.20099639892577 L 62.512001037597656 69.35800170898436 L 63.70500183105469 68.45500183105467 L 64.85099792480469 67.4929962158203 L 65.53600311279297 66.8573760986328 L 65.9469985961914 66.47599792480467 L 66.86418151855469 65.53600311279295 L 66.99199676513672 65.40499877929686 L 67.98100280761719 64.28399658203124 L 68.91400146484375 63.11399841308592 L 69.78700256347656 61.90000152587889 L 70.5989990234375 60.64300155639647 L 71.34700012207031 59.34799957275389 L 72.02899932861328 58.01699829101561 L 72.64399719238281 56.65299987792967 L 73.19100189208984 55.26100158691405 L 73.66699981689453 53.84299850463866 L 74.0719985961914 52.40299987792967 L 74.40499877929688 50.94400024414061 L 74.66500091552734 49.471000671386705 L 74.7049789428711 49.15200042724608 L 74.85099792480469 47.98699951171874 L 74.96299743652344 46.49499893188476 L 75 44.99999999999999 L 74.96299743652344 43.50500106811523 L 74.85099792480469 42.01300048828124 L 74.66500091552734 40.528999328613274 L 74.40499877929688 39.05599975585937 L 74.0719985961914 37.597000122070305 L 73.66699981689453 36.15700149536132 L 73.19100189208984 34.73899841308593 L 72.64399719238281 33.347000122070305 L 72.38294219970703 32.76800155639648 L 72.02899932861328 31.982999801635735 L 71.34700012207031 30.652000427246087 L 70.5989990234375 29.35700035095214 L 69.78700256347656 28.10000038146972 L 68.91400146484375 26.885999679565423 L 67.98100280761719 25.715999603271477 L 66.99199676513672 24.594999313354485 L 65.9469985961914 23.524000167846676 M -15 14.999999999999996 L -75 14.999999999999996 L -75 74.99999999999999 L -15 74.99999999999999 L -15 14.999999999999996 M -15 -23.03800010681152 L -18.694316864013672 -29.436801910400384 L -45 -74.99999999999999 L -75 -23.03800010681152 L -15 -23.03800010681152 M 72.55000305175781 -54.27099990844725 L 44.018001556396484 -74.99999999999999 L 15.487000465393066 -54.27099990844725 L 26.385000228881836 -20.72900009155273 L 61.652000427246094 -20.72900009155273 L 72.55000305175781 -54.27099990844725 z" fill="none" stroke="rgb(255,0,0)" stroke-width="0.001mm" />
</svg>