<?xml version="1.0" encoding="UTF-8"?>
<svg xmlns="http://www.w3.org/2000/svg" 
     width="500.00000000000006" 
     height="500.00000000000006" 
     viewBox="0 0 500.00000000000006 500.00000000000006">
  <g transform="translate(250.00000000000003, 250.00000000000003) scale(2.9411764705882355)">
    <path d="M -85 85 L -75 15 L -75 75 Z" fill="none" stroke="#000000" stroke-width="1" />
    <path d="M -75 75 L -15 75 L -85 85 Z" fill="none" stroke="#000000" stroke-width="1" />
    <path d="M -15 75 L 23.00844383239746 65.40518188476562 L 24.052894592285156 66.47600555419922 Z" fill="none" stroke="#000000" stroke-width="1" />
    <path d="M 24.052894592285156 66.47600555419922 L 25.149425506591797 67.49343872070312 L -15 75 Z" fill="none" stroke="#000000" stroke-width="1" />
    <path d="M -15 75 L 22.018667221069336 64.28363037109375 L 23.00844383239746 65.40518188476562 Z" fill="none" stroke="#000000" stroke-width="1" />
    <path d="M 25.149425506591797 67.49343872070312 L 26.295305252075195 68.45494079589844 L -15 75 Z" fill="none" stroke="#000000" stroke-width="1" />
    <path d="M -15 75 L 21.08602523803711 63.114131927490234 L 22.018667221069336 64.28363037109375 Z" fill="none" stroke="#000000" stroke-width="1" />
    <path d="M 26.295305252075195 68.45494079589844 L 27.487689971923828 69.35813903808594 L -15 75 Z" fill="none" stroke="#000000" stroke-width="1" />
    <path d="M -15 75 L 20.21283721923828 61.899600982666016 L 21.08602523803711 63.114131927490234 Z" fill="none" stroke="#000000" stroke-width="1" />
    <path d="M 27.487689971923828 69.35813903808594 L 28.72361183166504 70.20077514648438 L -15 75 Z" fill="none" stroke="#000000" stroke-width="1" />
    <path d="M -15 75 L 19.401273727416992 60.6430549621582 L 20.21283721923828 61.899600982666016 Z" fill="none" stroke="#000000" stroke-width="1" />
    <path d="M 28.72361183166504 70.20077514648438 L 30 70.98075866699219 L -15 75 Z" fill="none" stroke="#000000" stroke-width="1" />
    <path d="M -15 75 L 18.653352737426758 59.347618103027344 L 19.401273727416992 60.6430549621582 Z" fill="none" stroke="#000000" stroke-width="1" />
    <path d="M 30 70.98075866699219 L 31.31368064880371 71.69615173339844 L -15 75 Z" fill="none" stroke="#000000" stroke-width="1" />
    <path d="M -15 75 L 17.97093391418457 58.01651382446289 L 18.653352737426758 59.347618103027344 Z" fill="none" stroke="#000000" stroke-width="1" />
    <path d="M 31.31368064880371 71.69615173339844 L 32.6613883972168 72.34517669677734 L -15 75 Z" fill="none" stroke="#000000" stroke-width="1" />
    <path d="M -15 75 L 17.355712890625 56.653045654296875 L 17.97093391418457 58.01651382446289 Z" fill="none" stroke="#000000" stroke-width="1" />
    <path d="M 32.6613883972168 72.34517669677734 L 34.03976821899414 72.92621612548828 L -15 75 Z" fill="none" stroke="#000000" stroke-width="1" />
    <path d="M -15 75 L 16.809221267700195 55.26060485839844 L 17.355712890625 56.653045654296875 Z" fill="none" stroke="#000000" stroke-width="1" />
    <path d="M 34.03976821899414 72.92621612548828 L 35.44540023803711 73.43782043457031 L -15 75 Z" fill="none" stroke="#000000" stroke-width="1" />
    <path d="M -15 75 L 16.332815170288086 53.842655181884766 L 16.809221267700195 55.26060485839844 Z" fill="none" stroke="#000000" stroke-width="1" />
    <path d="M 35.44540023803711 73.43782043457031 L 36.874786376953125 73.87873077392578 L -15 75 Z" fill="none" stroke="#000000" stroke-width="1" />
    <path d="M -15 75 L 15.927680969238281 52.4027214050293 L 16.332815170288086 53.842655181884766 Z" fill="none" stroke="#000000" stroke-width="1" />
    <path d="M 36.874786376953125 73.87873077392578 L 38.324371337890625 74.24784088134766 L -15 75 Z" fill="none" stroke="#000000" stroke-width="1" />
    <path d="M -15 75 L 15.594825744628906 50.94438552856445 L 15.927680969238281 52.4027214050293 Z" fill="none" stroke="#000000" stroke-width="1" />
    <path d="M 38.324371337890625 74.24784088134766 L 39.79055404663086 74.54423522949219 L -15 75 Z" fill="none" stroke="#000000" stroke-width="1" />
    <path d="M -15 75 L 15.335075378417969 49.47126770019531 L 15.594825744628906 50.94438552856445 Z" fill="none" stroke="#000000" stroke-width="1" />
    <path d="M 39.79055404663086 74.54423522949219 L 41.26968765258789 74.76717376708984 L -15 75 Z" fill="none" stroke="#000000" stroke-width="1" />
    <path d="M -15 75 L 15.149076461791992 47.98703384399414 L 15.335075378417969 49.47126770019531 Z" fill="none" stroke="#000000" stroke-width="1" />
    <path d="M -15 75 L 15.03729248046875 46.49537658691406 L 15.149076461791992 47.98703384399414 Z" fill="none" stroke="#000000" stroke-width="1" />
    <path d="M -15 75 L 15 45 L 15.03729248046875 46.49537658691406 Z" fill="none" stroke="#000000" stroke-width="1" />
    <path d="M -15 75 L -15 15 L 15 45 Z" fill="none" stroke="#000000" stroke-width="1" />
    <path d="M -15 15 L 15.03729248046875 43.50462341308594 L 15 45 Z" fill="none" stroke="#000000" stroke-width="1" />
    <path d="M -15 15 L 15.149076461791992 42.01296615600586 L 15.03729248046875 43.50462341308594 Z" fill="none" stroke="#000000" stroke-width="1" />
    <path d="M -15 15 L 15.335075378417969 40.52873229980469 L 15.149076461791992 42.01296615600586 Z" fill="none" stroke="#000000" stroke-width="1" />
    <path d="M -15 15 L 15.594825744628906 39.05561447143555 L 15.335075378417969 40.52873229980469 Z" fill="none" stroke="#000000" stroke-width="1" />
    <path d="M -15 15 L 15.927680969238281 37.5972785949707 L 15.594825744628906 39.05561447143555 Z" fill="none" stroke="#000000" stroke-width="1" />
    <path d="M -15 15 L 16.332815170288086 36.157344818115234 L 15.927680969238281 37.5972785949707 Z" fill="none" stroke="#000000" stroke-width="1" />
    <path d="M -15 15 L 16.809221267700195 34.73939514160156 L 16.332815170288086 36.157344818115234 Z" fill="none" stroke="#000000" stroke-width="1" />
    <path d="M -15 15 L 17.355712890625 33.346954345703125 L 16.809221267700195 34.73939514160156 Z" fill="none" stroke="#000000" stroke-width="1" />
    <path d="M -15 15 L 17.97093391418457 31.983488082885742 L 17.355712890625 33.346954345703125 Z" fill="none" stroke="#000000" stroke-width="1" />
    <path d="M -15 15 L 18.653352737426758 30.652379989624023 L 17.97093391418457 31.983488082885742 Z" fill="none" stroke="#000000" stroke-width="1" />
    <path d="M -15 15 L 19.401273727416992 29.356943130493164 L 18.653352737426758 30.652379989624023 Z" fill="none" stroke="#000000" stroke-width="1" />
    <path d="M -15 15 L 20.21283721923828 28.100399017333984 L 19.401273727416992 29.356943130493164 Z" fill="none" stroke="#000000" stroke-width="1" />
    <path d="M -15 15 L 21.08602523803711 26.885868072509766 L 20.21283721923828 28.100399017333984 Z" fill="none" stroke="#000000" stroke-width="1" />
    <path d="M -15 15 L 22.018667221069336 25.716371536254883 L 21.08602523803711 26.885868072509766 Z" fill="none" stroke="#000000" stroke-width="1" />
    <path d="M -15 15 L 23.00844383239746 24.594818115234375 L 22.018667221069336 25.716371536254883 Z" fill="none" stroke="#000000" stroke-width="1" />
    <path d="M 42.75809860229492 74.9161148071289 L 85 85 L 41.26968765258789 74.76717376708984 Z" fill="none" stroke="#000000" stroke-width="1" />
    <path d="M 44.252079010009766 74.99067687988281 L 85 85 L 42.75809860229492 74.9161148071289 Z" fill="none" stroke="#000000" stroke-width="1" />
    <path d="M 45.747920989990234 74.99067687988281 L 85 85 L 44.252079010009766 74.99067687988281 Z" fill="none" stroke="#000000" stroke-width="1" />
    <path d="M 47.24190139770508 74.9161148071289 L 85 85 L 45.747920989990234 74.99067687988281 Z" fill="none" stroke="#000000" stroke-width="1" />
    <path d="M 48.73031234741211 74.76717376708984 L 85 85 L 47.24190139770508 74.9161148071289 Z" fill="none" stroke="#000000" stroke-width="1" />
    <path d="M 50.20944595336914 74.54423522949219 L 85 85 L 48.73031234741211 74.76717376708984 Z" fill="none" stroke="#000000" stroke-width="1" />
    <path d="M 51.675628662109375 74.24784088134766 L 85 85 L 50.20944595336914 74.54423522949219 Z" fill="none" stroke="#000000" stroke-width="1" />
    <path d="M 53.125213623046875 73.87873077392578 L 85 85 L 51.675628662109375 74.24784088134766 Z" fill="none" stroke="#000000" stroke-width="1" />
    <path d="M 54.55459976196289 73.43782043457031 L 85 85 L 53.125213623046875 73.87873077392578 Z" fill="none" stroke="#000000" stroke-width="1" />
    <path d="M 55.96023178100586 72.92621612548828 L 85 85 L 54.55459976196289 73.43782043457031 Z" fill="none" stroke="#000000" stroke-width="1" />
    <path d="M 57.3386116027832 72.34517669677734 L 85 85 L 55.96023178100586 72.92621612548828 Z" fill="none" stroke="#000000" stroke-width="1" />
    <path d="M 41.26968765258789 74.76717376708984 L 85 85 L -15 75 Z" fill="none" stroke="#000000" stroke-width="1" />
    <path d="M 58.68632125854492 71.69615173339844 L 85 85 L 57.3386116027832 72.34517669677734 Z" fill="none" stroke="#000000" stroke-width="1" />
    <path d="M 60 70.98075866699219 L 85 85 L 58.68632125854492 71.69615173339844 Z" fill="none" stroke="#000000" stroke-width="1" />
    <path d="M 61.27638626098633 70.20077514648438 L 85 85 L 60 70.98075866699219 Z" fill="none" stroke="#000000" stroke-width="1" />
    <path d="M 62.51231002807617 69.35813903808594 L 85 85 L 61.27638626098633 70.20077514648438 Z" fill="none" stroke="#000000" stroke-width="1" />
    <path d="M 63.70469284057617 68.45494079589844 L 85 85 L 62.51231002807617 69.35813903808594 Z" fill="none" stroke="#000000" stroke-width="1" />
    <path d="M 64.85057830810547 67.49343872070312 L 85 85 L 63.70469284057617 68.45494079589844 Z" fill="none" stroke="#000000" stroke-width="1" />
    <path d="M 65.94710540771484 66.47600555419922 L 85 85 L 64.85057830810547 67.49343872070312 Z" fill="none" stroke="#000000" stroke-width="1" />
    <path d="M -15 75 L 85 85 L -85 85 Z" fill="none" stroke="#000000" stroke-width="1" />
    <path d="M -15 15 L 24.052894592285156 23.52399444580078 L 23.00844383239746 24.594818115234375 Z" fill="none" stroke="#000000" stroke-width="1" />
    <path d="M 65.94710540771484 66.47600555419922 L 66.9915542602539 65.40518188476562 L 85 85 Z" fill="none" stroke="#000000" stroke-width="1" />
    <path d="M -15 15 L 25.149425506591797 22.506563186645508 L 24.052894592285156 23.52399444580078 Z" fill="none" stroke="#000000" stroke-width="1" />
    <path d="M 66.9915542602539 65.40518188476562 L 67.98133087158203 64.28363037109375 L 85 85 Z" fill="none" stroke="#000000" stroke-width="1" />
    <path d="M -15 15 L 26.295305252075195 21.545055389404297 L 25.149425506591797 22.506563186645508 Z" fill="none" stroke="#000000" stroke-width="1" />
    <path d="M 67.98133087158203 64.28363037109375 L 68.91397857666016 63.114131927490234 L 85 85 Z" fill="none" stroke="#000000" stroke-width="1" />
    <path d="M 68.91397857666016 63.114131927490234 L 69.78716278076172 61.899600982666016 L 85 85 Z" fill="none" stroke="#000000" stroke-width="1" />
    <path d="M -75 15 L -15 -23.038475036621094 L -15 15 Z" fill="none" stroke="#000000" stroke-width="1" />
    <path d="M -75 -23.038475036621094 L -15 -23.038475036621094 L -75 15 Z" fill="none" stroke="#000000" stroke-width="1" />
    <path d="M 69.78716278076172 61.899600982666016 L 70.59872436523438 60.6430549621582 L 85 85 Z" fill="none" stroke="#000000" stroke-width="1" />
    <path d="M 70.59872436523438 60.6430549621582 L 71.34664916992188 59.347618103027344 L 85 85 Z" fill="none" stroke="#000000" stroke-width="1" />
    <path d="M 71.34664916992188 59.347618103027344 L 72.02906799316406 58.01651382446289 L 85 85 Z" fill="none" stroke="#000000" stroke-width="1" />
    <path d="M 72.02906799316406 58.01651382446289 L 72.644287109375 56.653045654296875 L 85 85 Z" fill="none" stroke="#000000" stroke-width="1" />
    <path d="M 72.644287109375 56.653045654296875 L 73.19078063964844 55.26060485839844 L 85 85 Z" fill="none" stroke="#000000" stroke-width="1" />
    <path d="M 73.19078063964844 55.26060485839844 L 73.66718292236328 53.842655181884766 L 85 85 Z" fill="none" stroke="#000000" stroke-width="1" />
    <path d="M 73.66718292236328 53.842655181884766 L 74.07231903076172 52.4027214050293 L 85 85 Z" fill="none" stroke="#000000" stroke-width="1" />
    <path d="M 74.07231903076172 52.4027214050293 L 74.4051742553711 50.94438552856445 L 85 85 Z" fill="none" stroke="#000000" stroke-width="1" />
    <path d="M 74.4051742553711 50.94438552856445 L 74.66492462158203 49.47126770019531 L 85 85 Z" fill="none" stroke="#000000" stroke-width="1" />
    <path d="M 74.66492462158203 49.47126770019531 L 74.85092163085938 47.98703384399414 L 85 85 Z" fill="none" stroke="#000000" stroke-width="1" />
    <path d="M 74.85092163085938 47.98703384399414 L 74.96270751953125 46.49537658691406 L 85 85 Z" fill="none" stroke="#000000" stroke-width="1" />
    <path d="M -85 -85 L -45 -75 L -75 -23.038475036621094 Z" fill="none" stroke="#000000" stroke-width="1" />
    <path d="M 74.96270751953125 46.49537658691406 L 75 45 L 85 85 Z" fill="none" stroke="#000000" stroke-width="1" />
    <path d="M 75 45 L 74.96270751953125 43.50462341308594 L 85 85 Z" fill="none" stroke="#000000" stroke-width="1" />
    <path d="M 74.96270751953125 43.50462341308594 L 74.85092163085938 42.01296615600586 L 85 85 Z" fill="none" stroke="#000000" stroke-width="1" />
    <path d="M 74.85092163085938 42.01296615600586 L 74.66492462158203 40.52873229980469 L 85 85 Z" fill="none" stroke="#000000" stroke-width="1" />
    <path d="M -15 -23.038475036621094 L 26.384746551513672 -20.729490280151367 L -15 15 Z" fill="none" stroke="#000000" stroke-width="1" />
    <path d="M 42.75809860229492 15.08388614654541 L 26.384746551513672 -20.729490280151367 L 44.252079010009766 15.009324073791504 Z" fill="none" stroke="#000000" stroke-width="1" />
    <path d="M 41.26968765258789 15.232823371887207 L 26.384746551513672 -20.729490280151367 L 42.75809860229492 15.08388614654541 Z" fill="none" stroke="#000000" stroke-width="1" />
    <path d="M 39.79055404663086 15.455767631530762 L 26.384746551513672 -20.729490280151367 L 41.26968765258789 15.232823371887207 Z" fill="none" stroke="#000000" stroke-width="1" />
    <path d="M 38.324371337890625 15.75216293334961 L 26.384746551513672 -20.729490280151367 L 39.79055404663086 15.455767631530762 Z" fill="none" stroke="#000000" stroke-width="1" />
    <path d="M 36.874786376953125 16.121273040771484 L 26.384746551513672 -20.729490280151367 L 38.324371337890625 15.75216293334961 Z" fill="none" stroke="#000000" stroke-width="1" />
    <path d="M 35.44540023803711 16.562179565429688 L 26.384746551513672 -20.729490280151367 L 36.874786376953125 16.121273040771484 Z" fill="none" stroke="#000000" stroke-width="1" />
    <path d="M 34.03976821899414 17.073787689208984 L 26.384746551513672 -20.729490280151367 L 35.44540023803711 16.562179565429688 Z" fill="none" stroke="#000000" stroke-width="1" />
    <path d="M 32.6613883972168 17.65482521057129 L 26.384746551513672 -20.729490280151367 L 34.03976821899414 17.073787689208984 Z" fill="none" stroke="#000000" stroke-width="1" />
    <path d="M 31.31368064880371 18.30384635925293 L 26.384746551513672 -20.729490280151367 L 32.6613883972168 17.65482521057129 Z" fill="none" stroke="#000000" stroke-width="1" />
    <path d="M 30 19.019237518310547 L 26.384746551513672 -20.729490280151367 L 31.31368064880371 18.30384635925293 Z" fill="none" stroke="#000000" stroke-width="1" />
    <path d="M 28.72361183166504 19.799222946166992 L 26.384746551513672 -20.729490280151367 L 30 19.019237518310547 Z" fill="none" stroke="#000000" stroke-width="1" />
    <path d="M 27.487689971923828 20.64185905456543 L 26.384746551513672 -20.729490280151367 L 28.72361183166504 19.799222946166992 Z" fill="none" stroke="#000000" stroke-width="1" />
    <path d="M 26.295305252075195 21.545055389404297 L 26.384746551513672 -20.729490280151367 L 27.487689971923828 20.64185905456543 Z" fill="none" stroke="#000000" stroke-width="1" />
    <path d="M -15 15 L 26.384746551513672 -20.729490280151367 L 26.295305252075195 21.545055389404297 Z" fill="none" stroke="#000000" stroke-width="1" />
    <path d="M -45 -75 L 15.48660945892334 -54.270511627197266 L -15 -23.038475036621094 Z" fill="none" stroke="#000000" stroke-width="1" />
    <path d="M -15 -23.038475036621094 L 15.48660945892334 -54.270511627197266 L 26.384746551513672 -20.729490280151367 Z" fill="none" stroke="#000000" stroke-width="1" />
    <path d="M 70.59872436523438 29.356943130493164 L 61.65186309814453 -20.729490280151367 L 71.34664916992188 30.652379989624023 Z" fill="none" stroke="#000000" stroke-width="1" />
    <path d="M 69.78716278076172 28.100399017333984 L 61.65186309814453 -20.729490280151367 L 70.59872436523438 29.356943130493164 Z" fill="none" stroke="#000000" stroke-width="1" />
    <path d="M 68.91397857666016 26.885868072509766 L 61.65186309814453 -20.729490280151367 L 69.78716278076172 28.100399017333984 Z" fill="none" stroke="#000000" stroke-width="1" />
    <path d="M 67.98133087158203 25.716371536254883 L 61.65186309814453 -20.729490280151367 L 68.91397857666016 26.885868072509766 Z" fill="none" stroke="#000000" stroke-width="1" />
    <path d="M 66.9915542602539 24.594818115234375 L 61.65186309814453 -20.729490280151367 L 67.98133087158203 25.716371536254883 Z" fill="none" stroke="#000000" stroke-width="1" />
    <path d="M 65.94710540771484 23.52399444580078 L 61.65186309814453 -20.729490280151367 L 66.9915542602539 24.594818115234375 Z" fill="none" stroke="#000000" stroke-width="1" />
    <path d="M 64.85057830810547 22.506563186645508 L 61.65186309814453 -20.729490280151367 L 65.94710540771484 23.52399444580078 Z" fill="none" stroke="#000000" stroke-width="1" />
    <path d="M 63.70469284057617 21.545055389404297 L 61.65186309814453 -20.729490280151367 L 64.85057830810547 22.506563186645508 Z" fill="none" stroke="#000000" stroke-width="1" />
    <path d="M 62.51231002807617 20.64185905456543 L 61.65186309814453 -20.729490280151367 L 63.70469284057617 21.545055389404297 Z" fill="none" stroke="#000000" stroke-width="1" />
    <path d="M 61.27638626098633 19.799222946166992 L 61.65186309814453 -20.729490280151367 L 62.51231002807617 20.64185905456543 Z" fill="none" stroke="#000000" stroke-width="1" />
    <path d="M 60 19.019237518310547 L 61.65186309814453 -20.729490280151367 L 61.27638626098633 19.799222946166992 Z" fill="none" stroke="#000000" stroke-width="1" />
    <path d="M 58.68632125854492 18.30384635925293 L 61.65186309814453 -20.729490280151367 L 60 19.019237518310547 Z" fill="none" stroke="#000000" stroke-width="1" />
    <path d="M 57.3386116027832 17.65482521057129 L 61.65186309814453 -20.729490280151367 L 58.68632125854492 18.30384635925293 Z" fill="none" stroke="#000000" stroke-width="1" />
    <path d="M 55.96023178100586 17.073787689208984 L 61.65186309814453 -20.729490280151367 L 57.3386116027832 17.65482521057129 Z" fill="none" stroke="#000000" stroke-width="1" />
    <path d="M 54.55459976196289 16.562179565429688 L 61.65186309814453 -20.729490280151367 L 55.96023178100586 17.073787689208984 Z" fill="none" stroke="#000000" stroke-width="1" />
    <path d="M 53.125213623046875 16.121273040771484 L 61.65186309814453 -20.729490280151367 L 54.55459976196289 16.562179565429688 Z" fill="none" stroke="#000000" stroke-width="1" />
    <path d="M 51.675628662109375 15.75216293334961 L 61.65186309814453 -20.729490280151367 L 53.125213623046875 16.121273040771484 Z" fill="none" stroke="#000000" stroke-width="1" />
    <path d="M 50.20944595336914 15.455767631530762 L 61.65186309814453 -20.729490280151367 L 51.675628662109375 15.75216293334961 Z" fill="none" stroke="#000000" stroke-width="1" />
    <path d="M 48.73031234741211 15.232823371887207 L 61.65186309814453 -20.729490280151367 L 50.20944595336914 15.455767631530762 Z" fill="none" stroke="#000000" stroke-width="1" />
    <path d="M 47.24190139770508 15.08388614654541 L 61.65186309814453 -20.729490280151367 L 48.73031234741211 15.232823371887207 Z" fill="none" stroke="#000000" stroke-width="1" />
    <path d="M 26.384746551513672 -20.729490280151367 L 61.65186309814453 -20.729490280151367 L 44.252079010009766 15.009324073791504 Z" fill="none" stroke="#000000" stroke-width="1" />
    <path d="M 45.747920989990234 15.009324073791504 L 61.65186309814453 -20.729490280151367 L 47.24190139770508 15.08388614654541 Z" fill="none" stroke="#000000" stroke-width="1" />
    <path d="M 44.252079010009766 15.009324073791504 L 61.65186309814453 -20.729490280151367 L 45.747920989990234 15.009324073791504 Z" fill="none" stroke="#000000" stroke-width="1" />
    <path d="M -45 -75 L 44.01830291748047 -75 L 15.48660945892334 -54.270511627197266 Z" fill="none" stroke="#000000" stroke-width="1" />
    <path d="M 61.65186309814453 -20.729490280151367 L 72.55000305175781 -54.270511627197266 L 71.34664916992188 30.652379989624023 Z" fill="none" stroke="#000000" stroke-width="1" />
    <path d="M 73.19078063964844 34.73939514160156 L 72.55000305175781 -54.270511627197266 L 73.66718292236328 36.157344818115234 Z" fill="none" stroke="#000000" stroke-width="1" />
    <path d="M 72.644287109375 33.346954345703125 L 72.55000305175781 -54.270511627197266 L 73.19078063964844 34.73939514160156 Z" fill="none" stroke="#000000" stroke-width="1" />
    <path d="M 72.02906799316406 31.983488082885742 L 72.55000305175781 -54.270511627197266 L 72.644287109375 33.346954345703125 Z" fill="none" stroke="#000000" stroke-width="1" />
    <path d="M 71.34664916992188 30.652379989624023 L 72.55000305175781 -54.270511627197266 L 72.02906799316406 31.983488082885742 Z" fill="none" stroke="#000000" stroke-width="1" />
    <path d="M 72.55000305175781 -54.270511627197266 L 85 -85 L 73.66718292236328 36.157344818115234 Z" fill="none" stroke="#000000" stroke-width="1" />
    <path d="M 74.4051742553711 39.05561447143555 L 85 -85 L 74.66492462158203 40.52873229980469 Z" fill="none" stroke="#000000" stroke-width="1" />
    <path d="M 74.07231903076172 37.5972785949707 L 85 -85 L 74.4051742553711 39.05561447143555 Z" fill="none" stroke="#000000" stroke-width="1" />
    <path d="M 73.66718292236328 36.157344818115234 L 85 -85 L 74.07231903076172 37.5972785949707 Z" fill="none" stroke="#000000" stroke-width="1" />
    <path d="M 44.01830291748047 -75 L 85 -85 L 72.55000305175781 -54.270511627197266 Z" fill="none" stroke="#000000" stroke-width="1" />
    <path d="M -85 85 L -85 -85 L -75 15 Z" fill="none" stroke="#000000" stroke-width="1" />
    <path d="M -75 15 L -85 -85 L -75 -23.038475036621094 Z" fill="none" stroke="#000000" stroke-width="1" />
    <path d="M 85 -85 L 85 85 L 74.66492462158203 40.52873229980469 Z" fill="none" stroke="#000000" stroke-width="1" />
    <path d="M -85 -85 L 85 -85 L -45 -75 Z" fill="none" stroke="#000000" stroke-width="1" />
    <path d="M -45 -75 L 85 -85 L 44.01830291748047 -75 Z" fill="none" stroke="#000000" stroke-width="1" />
    <path d="M -85 -85 L -85 85 L -85 -85 Z" fill="none" stroke="#000000" stroke-width="1" />
    <path d="M 85 -85 L -85 -85 L 85 -85 Z" fill="none" stroke="#000000" stroke-width="1" />
    <path d="M -85 85 L 85 85 L -85 85 Z" fill="none" stroke="#000000" stroke-width="1" />
    <path d="M 85 85 L 85 -85 L 85 85 Z" fill="none" stroke="#000000" stroke-width="1" />
    <path d="M -75 15 L -75 75 L -75 75 Z" fill="none" stroke="#000000" stroke-width="1" />
    <path d="M -75 75 L -15 75 L -15 75 Z" fill="none" stroke="#000000" stroke-width="1" />
    <path d="M -15 75 L -15 15 L -15 15 Z" fill="none" stroke="#000000" stroke-width="1" />
    <path d="M -15 15 L -75 15 L -75 15 Z" fill="none" stroke="#000000" stroke-width="1" />
    <path d="M 75 45 L 74.96270751953125 43.50462341308594 L 74.96270751953125 43.50462341308594 Z" fill="none" stroke="#000000" stroke-width="1" />
    <path d="M 74.96270751953125 43.50462341308594 L 74.85092163085938 42.01296615600586 L 74.85092163085938 42.01296615600586 Z" fill="none" stroke="#000000" stroke-width="1" />
    <path d="M 74.85092163085938 42.01296615600586 L 74.85092163085938 42.01296615600586 L 74.66492462158203 40.52873229980469 Z" fill="none" stroke="#000000" stroke-width="1" />
    <path d="M 74.66492462158203 40.52873229980469 L 74.4051742553711 39.05561447143555 L 74.4051742553711 39.05561447143555 Z" fill="none" stroke="#000000" stroke-width="1" />
    <path d="M 74.4051742553711 39.05561447143555 L 74.4051742553711 39.05561447143555 L 74.07231903076172 37.5972785949707 Z" fill="none" stroke="#000000" stroke-width="1" />
    <path d="M 74.07231903076172 37.5972785949707 L 73.66718292236328 36.157344818115234 L 73.66718292236328 36.157344818115234 Z" fill="none" stroke="#000000" stroke-width="1" />
    <path d="M 73.66718292236328 36.157344818115234 L 73.19078063964844 34.73939514160156 L 73.19078063964844 34.73939514160156 Z" fill="none" stroke="#000000" stroke-width="1" />
    <path d="M 73.19078063964844 34.73939514160156 L 73.19078063964844 34.73939514160156 L 72.644287109375 33.346954345703125 Z" fill="none" stroke="#000000" stroke-width="1" />
    <path d="M 72.644287109375 33.346954345703125 L 72.02906799316406 31.983488082885742 L 72.02906799316406 31.983488082885742 Z" fill="none" stroke="#000000" stroke-width="1" />
    <path d="M 72.02906799316406 31.983488082885742 L 71.34664916992188 30.652379989624023 L 71.34664916992188 30.652379989624023 Z" fill="none" stroke="#000000" stroke-width="1" />
    <path d="M 71.34664916992188 30.652379989624023 L 70.59872436523438 29.356943130493164 L 70.59872436523438 29.356943130493164 Z" fill="none" stroke="#000000" stroke-width="1" />
    <path d="M 70.59872436523438 29.356943130493164 L 70.59872436523438 29.356943130493164 L 69.78716278076172 28.100399017333984 Z" fill="none" stroke="#000000" stroke-width="1" />
    <path d="M 69.78716278076172 28.100399017333984 L 68.91397857666016 26.885868072509766 L 68.91397857666016 26.885868072509766 Z" fill="none" stroke="#000000" stroke-width="1" />
    <path d="M 68.91397857666016 26.885868072509766 L 67.98133087158203 25.716371536254883 L 67.98133087158203 25.716371536254883 Z" fill="none" stroke="#000000" stroke-width="1" />
    <path d="M 67.98133087158203 25.716371536254883 L 66.9915542602539 24.594818115234375 L 66.9915542602539 24.594818115234375 Z" fill="none" stroke="#000000" stroke-width="1" />
    <path d="M 66.9915542602539 24.594818115234375 L 66.9915542602539 24.594818115234375 L 65.94710540771484 23.52399444580078 Z" fill="none" stroke="#000000" stroke-width="1" />
    <path d="M 65.94710540771484 23.52399444580078 L 64.85057830810547 22.506563186645508 L 64.85057830810547 22.506563186645508 Z" fill="none" stroke="#000000" stroke-width="1" />
    <path d="M 64.85057830810547 22.506563186645508 L 63.70469284057617 21.545055389404297 L 63.70469284057617 21.545055389404297 Z" fill="none" stroke="#000000" stroke-width="1" />
    <path d="M 63.70469284057617 21.545055389404297 L 63.70469284057617 21.545055389404297 L 62.51231002807617 20.64185905456543 Z" fill="none" stroke="#000000" stroke-width="1" />
    <path d="M 62.51231002807617 20.64185905456543 L 61.27638626098633 19.799222946166992 L 61.27638626098633 19.799222946166992 Z" fill="none" stroke="#000000" stroke-width="1" />
    <path d="M 61.27638626098633 19.799222946166992 L 60 19.019237518310547 L 60 19.019237518310547 Z" fill="none" stroke="#000000" stroke-width="1" />
    <path d="M 60 19.019237518310547 L 58.68632125854492 18.30384635925293 L 58.68632125854492 18.30384635925293 Z" fill="none" stroke="#000000" stroke-width="1" />
    <path d="M 58.68632125854492 18.30384635925293 L 57.3386116027832 17.65482521057129 L 57.3386116027832 17.65482521057129 Z" fill="none" stroke="#000000" stroke-width="1" />
    <path d="M 57.3386116027832 17.65482521057129 L 55.96023178100586 17.073787689208984 L 55.96023178100586 17.073787689208984 Z" fill="none" stroke="#000000" stroke-width="1" />
    <path d="M 55.96023178100586 17.073787689208984 L 54.55459976196289 16.562179565429688 L 54.55459976196289 16.562179565429688 Z" fill="none" stroke="#000000" stroke-width="1" />
    <path d="M 54.55459976196289 16.562179565429688 L 53.125213623046875 16.121273040771484 L 53.125213623046875 16.121273040771484 Z" fill="none" stroke="#000000" stroke-width="1" />
    <path d="M 53.125213623046875 16.121273040771484 L 51.675628662109375 15.75216293334961 L 51.675628662109375 15.75216293334961 Z" fill="none" stroke="#000000" stroke-width="1" />
    <path d="M 51.675628662109375 15.75216293334961 L 50.20944595336914 15.455767631530762 L 50.20944595336914 15.455767631530762 Z" fill="none" stroke="#000000" stroke-width="1" />
    <path d="M 50.20944595336914 15.455767631530762 L 50.20944595336914 15.455767631530762 L 48.73031234741211 15.232823371887207 Z" fill="none" stroke="#000000" stroke-width="1" />
    <path d="M 48.73031234741211 15.232823371887207 L 47.24190139770508 15.08388614654541 L 47.24190139770508 15.08388614654541 Z" fill="none" stroke="#000000" stroke-width="1" />
    <path d="M 47.24190139770508 15.08388614654541 L 45.747920989990234 15.009324073791504 L 45.747920989990234 15.009324073791504 Z" fill="none" stroke="#000000" stroke-width="1" />
    <path d="M 45.747920989990234 15.009324073791504 L 44.252079010009766 15.009324073791504 L 44.252079010009766 15.009324073791504 Z" fill="none" stroke="#000000" stroke-width="1" />
    <path d="M 44.252079010009766 15.009324073791504 L 42.75809860229492 15.08388614654541 L 42.75809860229492 15.08388614654541 Z" fill="none" stroke="#000000" stroke-width="1" />
    <path d="M 42.75809860229492 15.08388614654541 L 41.26968765258789 15.232823371887207 L 41.26968765258789 15.232823371887207 Z" fill="none" stroke="#000000" stroke-width="1" />
    <path d="M 41.26968765258789 15.232823371887207 L 39.79055404663086 15.455767631530762 L 39.79055404663086 15.455767631530762 Z" fill="none" stroke="#000000" stroke-width="1" />
    <path d="M 39.79055404663086 15.455767631530762 L 38.324371337890625 15.75216293334961 L 38.324371337890625 15.75216293334961 Z" fill="none" stroke="#000000" stroke-width="1" />
    <path d="M 38.324371337890625 15.75216293334961 L 36.874786376953125 16.121273040771484 L 36.874786376953125 16.121273040771484 Z" fill="none" stroke="#000000" stroke-width="1" />
    <path d="M 36.874786376953125 16.121273040771484 L 36.874786376953125 16.121273040771484 L 35.44540023803711 16.562179565429688 Z" fill="none" stroke="#000000" stroke-width="1" />
    <path d="M 35.44540023803711 16.562179565429688 L 35.44540023803711 16.562179565429688 L 34.03976821899414 17.073787689208984 Z" fill="none" stroke="#000000" stroke-width="1" />
    <path d="M 34.03976821899414 17.073787689208984 L 32.6613883972168 17.65482521057129 L 32.6613883972168 17.65482521057129 Z" fill="none" stroke="#000000" stroke-width="1" />
    <path d="M 32.6613883972168 17.65482521057129 L 31.31368064880371 18.30384635925293 L 31.31368064880371 18.30384635925293 Z" fill="none" stroke="#000000" stroke-width="1" />
    <path d="M 31.31368064880371 18.30384635925293 L 30 19.019237518310547 L 30 19.019237518310547 Z" fill="none" stroke="#000000" stroke-width="1" />
    <path d="M 30 19.019237518310547 L 28.72361183166504 19.799222946166992 L 28.72361183166504 19.799222946166992 Z" fill="none" stroke="#000000" stroke-width="1" />
    <path d="M 28.72361183166504 19.799222946166992 L 27.487689971923828 20.64185905456543 L 27.487689971923828 20.64185905456543 Z" fill="none" stroke="#000000" stroke-width="1" />
    <path d="M 27.487689971923828 20.64185905456543 L 26.295305252075195 21.545055389404297 L 26.295305252075195 21.545055389404297 Z" fill="none" stroke="#000000" stroke-width="1" />
    <path d="M 26.295305252075195 21.545055389404297 L 25.149425506591797 22.506563186645508 L 25.149425506591797 22.506563186645508 Z" fill="none" stroke="#000000" stroke-width="1" />
    <path d="M 25.149425506591797 22.506563186645508 L 25.149425506591797 22.506563186645508 L 24.052894592285156 23.52399444580078 Z" fill="none" stroke="#000000" stroke-width="1" />
    <path d="M 24.052894592285156 23.52399444580078 L 23.00844383239746 24.594818115234375 L 23.00844383239746 24.594818115234375 Z" fill="none" stroke="#000000" stroke-width="1" />
    <path d="M 23.00844383239746 24.594818115234375 L 22.018667221069336 25.716371536254883 L 22.018667221069336 25.716371536254883 Z" fill="none" stroke="#000000" stroke-width="1" />
    <path d="M 22.018667221069336 25.716371536254883 L 21.08602523803711 26.885868072509766 L 21.08602523803711 26.885868072509766 Z" fill="none" stroke="#000000" stroke-width="1" />
    <path d="M 21.08602523803711 26.885868072509766 L 21.08602523803711 26.885868072509766 L 20.21283721923828 28.100399017333984 Z" fill="none" stroke="#000000" stroke-width="1" />
    <path d="M 20.21283721923828 28.100399017333984 L 19.401273727416992 29.356943130493164 L 19.401273727416992 29.356943130493164 Z" fill="none" stroke="#000000" stroke-width="1" />
    <path d="M 19.401273727416992 29.356943130493164 L 19.401273727416992 29.356943130493164 L 18.653352737426758 30.652379989624023 Z" fill="none" stroke="#000000" stroke-width="1" />
    <path d="M 18.653352737426758 30.652379989624023 L 17.97093391418457 31.983488082885742 L 17.97093391418457 31.983488082885742 Z" fill="none" stroke="#000000" stroke-width="1" />
    <path d="M 17.97093391418457 31.983488082885742 L 17.97093391418457 31.983488082885742 L 17.355712890625 33.346954345703125 Z" fill="none" stroke="#000000" stroke-width="1" />
    <path d="M 17.355712890625 33.346954345703125 L 16.809221267700195 34.73939514160156 L 16.809221267700195 34.73939514160156 Z" fill="none" stroke="#000000" stroke-width="1" />
    <path d="M 16.809221267700195 34.73939514160156 L 16.332815170288086 36.157344818115234 L 16.332815170288086 36.157344818115234 Z" fill="none" stroke="#000000" stroke-width="1" />
    <path d="M 16.332815170288086 36.157344818115234 L 16.332815170288086 36.157344818115234 L 15.927680969238281 37.5972785949707 Z" fill="none" stroke="#000000" stroke-width="1" />
    <path d="M 15.927680969238281 37.5972785949707 L 15.594825744628906 39.05561447143555 L 15.594825744628906 39.05561447143555 Z" fill="none" stroke="#000000" stroke-width="1" />
    <path d="M 15.594825744628906 39.05561447143555 L 15.335075378417969 40.52873229980469 L 15.335075378417969 40.52873229980469 Z" fill="none" stroke="#000000" stroke-width="1" />
    <path d="M 15.335075378417969 40.52873229980469 L 15.149076461791992 42.01296615600586 L 15.149076461791992 42.01296615600586 Z" fill="none" stroke="#000000" stroke-width="1" />
    <path d="M 15.149076461791992 42.01296615600586 L 15.03729248046875 43.50462341308594 L 15.03729248046875 43.50462341308594 Z" fill="none" stroke="#000000" stroke-width="1" />
    <path d="M 15.03729248046875 43.50462341308594 L 15.03729248046875 43.50462341308594 L 15 45 Z" fill="none" stroke="#000000" stroke-width="1" />
    <path d="M 15 45 L 15 45 L 15.03729248046875 46.49537658691406 Z" fill="none" stroke="#000000" stroke-width="1" />
    <path d="M 15.03729248046875 46.49537658691406 L 15.149076461791992 47.98703384399414 L 15.149076461791992 47.98703384399414 Z" fill="none" stroke="#000000" stroke-width="1" />
    <path d="M 15.149076461791992 47.98703384399414 L 15.149076461791992 47.98703384399414 L 15.335075378417969 49.47126770019531 Z" fill="none" stroke="#000000" stroke-width="1" />
    <path d="M 15.335075378417969 49.47126770019531 L 15.335075378417969 49.47126770019531 L 15.594825744628906 50.94438552856445 Z" fill="none" stroke="#000000" stroke-width="1" />
    <path d="M 15.594825744628906 50.94438552856445 L 15.594825744628906 50.94438552856445 L 15.927680969238281 52.4027214050293 Z" fill="none" stroke="#000000" stroke-width="1" />
    <path d="M 15.927680969238281 52.4027214050293 L 16.332815170288086 53.842655181884766 L 16.332815170288086 53.842655181884766 Z" fill="none" stroke="#000000" stroke-width="1" />
    <path d="M 16.332815170288086 53.842655181884766 L 16.332815170288086 53.842655181884766 L 16.809221267700195 55.26060485839844 Z" fill="none" stroke="#000000" stroke-width="1" />
    <path d="M 16.809221267700195 55.26060485839844 L 17.355712890625 56.653045654296875 L 17.355712890625 56.653045654296875 Z" fill="none" stroke="#000000" stroke-width="1" />
    <path d="M 17.355712890625 56.653045654296875 L 17.97093391418457 58.01651382446289 L 17.97093391418457 58.01651382446289 Z" fill="none" stroke="#000000" stroke-width="1" />
    <path d="M 17.97093391418457 58.01651382446289 L 17.97093391418457 58.01651382446289 L 18.653352737426758 59.347618103027344 Z" fill="none" stroke="#000000" stroke-width="1" />
    <path d="M 18.653352737426758 59.347618103027344 L 19.401273727416992 60.6430549621582 L 19.401273727416992 60.6430549621582 Z" fill="none" stroke="#000000" stroke-width="1" />
    <path d="M 19.401273727416992 60.6430549621582 L 20.21283721923828 61.899600982666016 L 20.21283721923828 61.899600982666016 Z" fill="none" stroke="#000000" stroke-width="1" />
    <path d="M 20.21283721923828 61.899600982666016 L 21.08602523803711 63.114131927490234 L 21.08602523803711 63.114131927490234 Z" fill="none" stroke="#000000" stroke-width="1" />
    <path d="M 21.08602523803711 63.114131927490234 L 21.08602523803711 63.114131927490234 L 22.018667221069336 64.28363037109375 Z" fill="none" stroke="#000000" stroke-width="1" />
    <path d="M 22.018667221069336 64.28363037109375 L 23.00844383239746 65.40518188476562 L 23.00844383239746 65.40518188476562 Z" fill="none" stroke="#000000" stroke-width="1" />
    <path d="M 23.00844383239746 65.40518188476562 L 24.052894592285156 66.47600555419922 L 24.052894592285156 66.47600555419922 Z" fill="none" stroke="#000000" stroke-width="1" />
    <path d="M 24.052894592285156 66.47600555419922 L 24.052894592285156 66.47600555419922 L 25.149425506591797 67.49343872070312 Z" fill="none" stroke="#000000" stroke-width="1" />
    <path d="M 25.149425506591797 67.49343872070312 L 26.295305252075195 68.45494079589844 L 26.295305252075195 68.45494079589844 Z" fill="none" stroke="#000000" stroke-width="1" />
    <path d="M 26.295305252075195 68.45494079589844 L 27.487689971923828 69.35813903808594 L 27.487689971923828 69.35813903808594 Z" fill="none" stroke="#000000" stroke-width="1" />
    <path d="M 27.487689971923828 69.35813903808594 L 28.72361183166504 70.20077514648438 L 28.72361183166504 70.20077514648438 Z" fill="none" stroke="#000000" stroke-width="1" />
    <path d="M 28.72361183166504 70.20077514648438 L 28.72361183166504 70.20077514648438 L 30 70.98075866699219 Z" fill="none" stroke="#000000" stroke-width="1" />
    <path d="M 30 70.98075866699219 L 31.31368064880371 71.69615173339844 L 31.31368064880371 71.69615173339844 Z" fill="none" stroke="#000000" stroke-width="1" />
    <path d="M 31.31368064880371 71.69615173339844 L 32.6613883972168 72.34517669677734 L 32.6613883972168 72.34517669677734 Z" fill="none" stroke="#000000" stroke-width="1" />
    <path d="M 32.6613883972168 72.34517669677734 L 34.03976821899414 72.92621612548828 L 34.03976821899414 72.92621612548828 Z" fill="none" stroke="#000000" stroke-width="1" />
    <path d="M 34.03976821899414 72.92621612548828 L 35.44540023803711 73.43782043457031 L 35.44540023803711 73.43782043457031 Z" fill="none" stroke="#000000" stroke-width="1" />
    <path d="M 35.44540023803711 73.43782043457031 L 36.874786376953125 73.87873077392578 L 36.874786376953125 73.87873077392578 Z" fill="none" stroke="#000000" stroke-width="1" />
    <path d="M 36.874786376953125 73.87873077392578 L 38.324371337890625 74.24784088134766 L 38.324371337890625 74.24784088134766 Z" fill="none" stroke="#000000" stroke-width="1" />
    <path d="M 38.324371337890625 74.24784088134766 L 39.79055404663086 74.54423522949219 L 39.79055404663086 74.54423522949219 Z" fill="none" stroke="#000000" stroke-width="1" />
    <path d="M 39.79055404663086 74.54423522949219 L 39.79055404663086 74.54423522949219 L 41.26968765258789 74.76717376708984 Z" fill="none" stroke="#000000" stroke-width="1" />
    <path d="M 41.26968765258789 74.76717376708984 L 42.75809860229492 74.9161148071289 L 42.75809860229492 74.9161148071289 Z" fill="none" stroke="#000000" stroke-width="1" />
    <path d="M 42.75809860229492 74.9161148071289 L 44.252079010009766 74.99067687988281 L 44.252079010009766 74.99067687988281 Z" fill="none" stroke="#000000" stroke-width="1" />
    <path d="M 44.252079010009766 74.99067687988281 L 45.747920989990234 74.99067687988281 L 45.747920989990234 74.99067687988281 Z" fill="none" stroke="#000000" stroke-width="1" />
    <path d="M 45.747920989990234 74.99067687988281 L 47.24190139770508 74.9161148071289 L 47.24190139770508 74.9161148071289 Z" fill="none" stroke="#000000" stroke-width="1" />
    <path d="M 47.24190139770508 74.9161148071289 L 48.73031234741211 74.76717376708984 L 48.73031234741211 74.76717376708984 Z" fill="none" stroke="#000000" stroke-width="1" />
    <path d="M 48.73031234741211 74.76717376708984 L 50.20944595336914 74.54423522949219 L 50.20944595336914 74.54423522949219 Z" fill="none" stroke="#000000" stroke-width="1" />
    <path d="M 50.20944595336914 74.54423522949219 L 51.675628662109375 74.24784088134766 L 51.675628662109375 74.24784088134766 Z" fill="none" stroke="#000000" stroke-width="1" />
    <path d="M 51.675628662109375 74.24784088134766 L 53.125213623046875 73.87873077392578 L 53.125213623046875 73.87873077392578 Z" fill="none" stroke="#000000" stroke-width="1" />
    <path d="M 53.125213623046875 73.87873077392578 L 54.55459976196289 73.43782043457031 L 54.55459976196289 73.43782043457031 Z" fill="none" stroke="#000000" stroke-width="1" />
    <path d="M 54.55459976196289 73.43782043457031 L 55.96023178100586 72.92621612548828 L 55.96023178100586 72.92621612548828 Z" fill="none" stroke="#000000" stroke-width="1" />
    <path d="M 55.96023178100586 72.92621612548828 L 57.3386116027832 72.34517669677734 L 57.3386116027832 72.34517669677734 Z" fill="none" stroke="#000000" stroke-width="1" />
    <path d="M 57.3386116027832 72.34517669677734 L 58.68632125854492 71.69615173339844 L 58.68632125854492 71.69615173339844 Z" fill="none" stroke="#000000" stroke-width="1" />
    <path d="M 58.68632125854492 71.69615173339844 L 58.68632125854492 71.69615173339844 L 60 70.98075866699219 Z" fill="none" stroke="#000000" stroke-width="1" />
    <path d="M 60 70.98075866699219 L 61.27638626098633 70.20077514648438 L 61.27638626098633 70.20077514648438 Z" fill="none" stroke="#000000" stroke-width="1" />
    <path d="M 61.27638626098633 70.20077514648438 L 62.51231002807617 69.35813903808594 L 62.51231002807617 69.35813903808594 Z" fill="none" stroke="#000000" stroke-width="1" />
    <path d="M 62.51231002807617 69.35813903808594 L 63.70469284057617 68.45494079589844 L 63.70469284057617 68.45494079589844 Z" fill="none" stroke="#000000" stroke-width="1" />
    <path d="M 63.70469284057617 68.45494079589844 L 64.85057830810547 67.49343872070312 L 64.85057830810547 67.49343872070312 Z" fill="none" stroke="#000000" stroke-width="1" />
    <path d="M 64.85057830810547 67.49343872070312 L 65.94710540771484 66.47600555419922 L 65.94710540771484 66.47600555419922 Z" fill="none" stroke="#000000" stroke-width="1" />
    <path d="M 65.94710540771484 66.47600555419922 L 66.9915542602539 65.40518188476562 L 66.9915542602539 65.40518188476562 Z" fill="none" stroke="#000000" stroke-width="1" />
    <path d="M 66.9915542602539 65.40518188476562 L 67.98133087158203 64.28363037109375 L 67.98133087158203 64.28363037109375 Z" fill="none" stroke="#000000" stroke-width="1" />
    <path d="M 67.98133087158203 64.28363037109375 L 68.91397857666016 63.114131927490234 L 68.91397857666016 63.114131927490234 Z" fill="none" stroke="#000000" stroke-width="1" />
    <path d="M 68.91397857666016 63.114131927490234 L 69.78716278076172 61.899600982666016 L 69.78716278076172 61.899600982666016 Z" fill="none" stroke="#000000" stroke-width="1" />
    <path d="M 69.78716278076172 61.899600982666016 L 70.59872436523438 60.6430549621582 L 70.59872436523438 60.6430549621582 Z" fill="none" stroke="#000000" stroke-width="1" />
    <path d="M 70.59872436523438 60.6430549621582 L 71.34664916992188 59.347618103027344 L 71.34664916992188 59.347618103027344 Z" fill="none" stroke="#000000" stroke-width="1" />
    <path d="M 71.34664916992188 59.347618103027344 L 72.02906799316406 58.01651382446289 L 72.02906799316406 58.01651382446289 Z" fill="none" stroke="#000000" stroke-width="1" />
    <path d="M 72.02906799316406 58.01651382446289 L 72.644287109375 56.653045654296875 L 72.644287109375 56.653045654296875 Z" fill="none" stroke="#000000" stroke-width="1" />
    <path d="M 72.644287109375 56.653045654296875 L 73.19078063964844 55.26060485839844 L 73.19078063964844 55.26060485839844 Z" fill="none" stroke="#000000" stroke-width="1" />
    <path d="M 73.19078063964844 55.26060485839844 L 73.19078063964844 55.26060485839844 L 73.66718292236328 53.842655181884766 Z" fill="none" stroke="#000000" stroke-width="1" />
    <path d="M 73.66718292236328 53.842655181884766 L 74.07231903076172 52.4027214050293 L 74.07231903076172 52.4027214050293 Z" fill="none" stroke="#000000" stroke-width="1" />
    <path d="M 74.07231903076172 52.4027214050293 L 74.4051742553711 50.94438552856445 L 74.4051742553711 50.94438552856445 Z" fill="none" stroke="#000000" stroke-width="1" />
    <path d="M 74.4051742553711 50.94438552856445 L 74.66492462158203 49.47126770019531 L 74.66492462158203 49.47126770019531 Z" fill="none" stroke="#000000" stroke-width="1" />
    <path d="M 74.66492462158203 49.47126770019531 L 74.85092163085938 47.98703384399414 L 74.85092163085938 47.98703384399414 Z" fill="none" stroke="#000000" stroke-width="1" />
    <path d="M 74.85092163085938 47.98703384399414 L 74.96270751953125 46.49537658691406 L 74.96270751953125 46.49537658691406 Z" fill="none" stroke="#000000" stroke-width="1" />
    <path d="M 74.96270751953125 46.49537658691406 L 74.96270751953125 46.49537658691406 L 75 45 Z" fill="none" stroke="#000000" stroke-width="1" />
    <path d="M -15 -23.038475036621094 L -45 -75 L -45 -75 Z" fill="none" stroke="#000000" stroke-width="1" />
    <path d="M -45 -75 L -75 -23.038475036621094 L -75 -23.038475036621094 Z" fill="none" stroke="#000000" stroke-width="1" />
    <path d="M -75 -23.038475036621094 L -15 -23.038475036621094 L -15 -23.038475036621094 Z" fill="none" stroke="#000000" stroke-width="1" />
    <path d="M 72.55000305175781 -54.270511627197266 L 44.01830291748047 -75 L 44.01830291748047 -75 Z" fill="none" stroke="#000000" stroke-width="1" />
    <path d="M 44.01830291748047 -75 L 15.48660945892334 -54.270511627197266 L 15.48660945892334 -54.270511627197266 Z" fill="none" stroke="#000000" stroke-width="1" />
    <path d="M 15.48660945892334 -54.270511627197266 L 26.384746551513672 -20.729490280151367 L 15.48660945892334 -54.270511627197266 Z" fill="none" stroke="#000000" stroke-width="1" />
    <path d="M 26.384746551513672 -20.729490280151367 L 61.65186309814453 -20.729490280151367 L 26.384746551513672 -20.729490280151367 Z" fill="none" stroke="#000000" stroke-width="1" />
    <path d="M 61.65186309814453 -20.729490280151367 L 72.55000305175781 -54.270511627197266 L 61.65186309814453 -20.729490280151367 Z" fill="none" stroke="#000000" stroke-width="1" />
    <path d="M -85 -85 L -85 85 L -85 85 Z" fill="none" stroke="#000000" stroke-width="1" />
    <path d="M 85 -85 L -85 -85 L -85 -85 Z" fill="none" stroke="#000000" stroke-width="1" />
    <path d="M -85 85 L 85 85 L 85 85 Z" fill="none" stroke="#000000" stroke-width="1" />
    <path d="M 85 85 L 85 -85 L 85 -85 Z" fill="none" stroke="#000000" stroke-width="1" />
    <path d="M -75 15 L -75 75 L -75 15 Z" fill="none" stroke="#000000" stroke-width="1" />
    <path d="M -75 75 L -15 75 L -75 75 Z" fill="none" stroke="#000000" stroke-width="1" />
    <path d="M -15 75 L -15 15 L -15 75 Z" fill="none" stroke="#000000" stroke-width="1" />
    <path d="M -15 15 L -75 15 L -15 15 Z" fill="none" stroke="#000000" stroke-width="1" />
    <path d="M 75 45 L 74.96270751953125 43.50462341308594 L 75 45 Z" fill="none" stroke="#000000" stroke-width="1" />
    <path d="M 74.96270751953125 43.50462341308594 L 74.85092163085938 42.01296615600586 L 74.96270751953125 43.50462341308594 Z" fill="none" stroke="#000000" stroke-width="1" />
    <path d="M 74.85092163085938 42.01296615600586 L 74.66492462158203 40.52873229980469 L 74.66492462158203 40.52873229980469 Z" fill="none" stroke="#000000" stroke-width="1" />
    <path d="M 74.66492462158203 40.52873229980469 L 74.4051742553711 39.05561447143555 L 74.66492462158203 40.52873229980469 Z" fill="none" stroke="#000000" stroke-width="1" />
    <path d="M 74.4051742553711 39.05561447143555 L 74.07231903076172 37.5972785949707 L 74.07231903076172 37.5972785949707 Z" fill="none" stroke="#000000" stroke-width="1" />
    <path d="M 74.07231903076172 37.5972785949707 L 73.66718292236328 36.157344818115234 L 74.07231903076172 37.5972785949707 Z" fill="none" stroke="#000000" stroke-width="1" />
    <path d="M 73.66718292236328 36.157344818115234 L 73.19078063964844 34.73939514160156 L 73.66718292236328 36.157344818115234 Z" fill="none" stroke="#000000" stroke-width="1" />
    <path d="M 73.19078063964844 34.73939514160156 L 72.644287109375 33.346954345703125 L 72.644287109375 33.346954345703125 Z" fill="none" stroke="#000000" stroke-width="1" />
    <path d="M 72.644287109375 33.346954345703125 L 72.02906799316406 31.983488082885742 L 72.644287109375 33.346954345703125 Z" fill="none" stroke="#000000" stroke-width="1" />
    <path d="M 72.02906799316406 31.983488082885742 L 71.34664916992188 30.652379989624023 L 72.02906799316406 31.983488082885742 Z" fill="none" stroke="#000000" stroke-width="1" />
    <path d="M 71.34664916992188 30.652379989624023 L 70.59872436523438 29.356943130493164 L 71.34664916992188 30.652379989624023 Z" fill="none" stroke="#000000" stroke-width="1" />
    <path d="M 70.59872436523438 29.356943130493164 L 69.78716278076172 28.100399017333984 L 69.78716278076172 28.100399017333984 Z" fill="none" stroke="#000000" stroke-width="1" />
    <path d="M 69.78716278076172 28.100399017333984 L 68.91397857666016 26.885868072509766 L 69.78716278076172 28.100399017333984 Z" fill="none" stroke="#000000" stroke-width="1" />
    <path d="M 68.91397857666016 26.885868072509766 L 67.98133087158203 25.716371536254883 L 68.91397857666016 26.885868072509766 Z" fill="none" stroke="#000000" stroke-width="1" />
    <path d="M 67.98133087158203 25.716371536254883 L 66.9915542602539 24.594818115234375 L 67.98133087158203 25.716371536254883 Z" fill="none" stroke="#000000" stroke-width="1" />
    <path d="M 66.9915542602539 24.594818115234375 L 65.94710540771484 23.52399444580078 L 65.94710540771484 23.52399444580078 Z" fill="none" stroke="#000000" stroke-width="1" />
    <path d="M 65.94710540771484 23.52399444580078 L 64.85057830810547 22.506563186645508 L 65.94710540771484 23.52399444580078 Z" fill="none" stroke="#000000" stroke-width="1" />
    <path d="M 64.85057830810547 22.506563186645508 L 63.70469284057617 21.545055389404297 L 64.85057830810547 22.506563186645508 Z" fill="none" stroke="#000000" stroke-width="1" />
    <path d="M 63.70469284057617 21.545055389404297 L 62.51231002807617 20.64185905456543 L 62.51231002807617 20.64185905456543 Z" fill="none" stroke="#000000" stroke-width="1" />
    <path d="M 62.51231002807617 20.64185905456543 L 61.27638626098633 19.799222946166992 L 62.51231002807617 20.64185905456543 Z" fill="none" stroke="#000000" stroke-width="1" />
    <path d="M 61.27638626098633 19.799222946166992 L 60 19.019237518310547 L 61.27638626098633 19.799222946166992 Z" fill="none" stroke="#000000" stroke-width="1" />
    <path d="M 60 19.019237518310547 L 58.68632125854492 18.30384635925293 L 60 19.019237518310547 Z" fill="none" stroke="#000000" stroke-width="1" />
    <path d="M 58.68632125854492 18.30384635925293 L 57.3386116027832 17.65482521057129 L 58.68632125854492 18.30384635925293 Z" fill="none" stroke="#000000" stroke-width="1" />
    <path d="M 57.3386116027832 17.65482521057129 L 55.96023178100586 17.073787689208984 L 57.3386116027832 17.65482521057129 Z" fill="none" stroke="#000000" stroke-width="1" />
    <path d="M 55.96023178100586 17.073787689208984 L 54.55459976196289 16.562179565429688 L 55.96023178100586 17.073787689208984 Z" fill="none" stroke="#000000" stroke-width="1" />
    <path d="M 54.55459976196289 16.562179565429688 L 53.125213623046875 16.121273040771484 L 54.55459976196289 16.562179565429688 Z" fill="none" stroke="#000000" stroke-width="1" />
    <path d="M 53.125213623046875 16.121273040771484 L 51.675628662109375 15.75216293334961 L 53.125213623046875 16.121273040771484 Z" fill="none" stroke="#000000" stroke-width="1" />
    <path d="M 51.675628662109375 15.75216293334961 L 50.20944595336914 15.455767631530762 L 51.675628662109375 15.75216293334961 Z" fill="none" stroke="#000000" stroke-width="1" />
    <path d="M 50.20944595336914 15.455767631530762 L 48.73031234741211 15.232823371887207 L 48.73031234741211 15.232823371887207 Z" fill="none" stroke="#000000" stroke-width="1" />
    <path d="M 48.73031234741211 15.232823371887207 L 47.24190139770508 15.08388614654541 L 48.73031234741211 15.232823371887207 Z" fill="none" stroke="#000000" stroke-width="1" />
    <path d="M 47.24190139770508 15.08388614654541 L 45.747920989990234 15.009324073791504 L 47.24190139770508 15.08388614654541 Z" fill="none" stroke="#000000" stroke-width="1" />
    <path d="M 45.747920989990234 15.009324073791504 L 44.252079010009766 15.009324073791504 L 45.747920989990234 15.009324073791504 Z" fill="none" stroke="#000000" stroke-width="1" />
    <path d="M 44.252079010009766 15.009324073791504 L 42.75809860229492 15.08388614654541 L 44.252079010009766 15.009324073791504 Z" fill="none" stroke="#000000" stroke-width="1" />
    <path d="M 42.75809860229492 15.08388614654541 L 41.26968765258789 15.232823371887207 L 42.75809860229492 15.08388614654541 Z" fill="none" stroke="#000000" stroke-width="1" />
    <path d="M 41.26968765258789 15.232823371887207 L 39.79055404663086 15.455767631530762 L 41.26968765258789 15.232823371887207 Z" fill="none" stroke="#000000" stroke-width="1" />
    <path d="M 39.79055404663086 15.455767631530762 L 38.324371337890625 15.75216293334961 L 39.79055404663086 15.455767631530762 Z" fill="none" stroke="#000000" stroke-width="1" />
    <path d="M 38.324371337890625 15.75216293334961 L 36.874786376953125 16.121273040771484 L 38.324371337890625 15.75216293334961 Z" fill="none" stroke="#000000" stroke-width="1" />
    <path d="M 36.874786376953125 16.121273040771484 L 35.44540023803711 16.562179565429688 L 35.44540023803711 16.562179565429688 Z" fill="none" stroke="#000000" stroke-width="1" />
    <path d="M 35.44540023803711 16.562179565429688 L 34.03976821899414 17.073787689208984 L 34.03976821899414 17.073787689208984 Z" fill="none" stroke="#000000" stroke-width="1" />
    <path d="M 34.03976821899414 17.073787689208984 L 32.6613883972168 17.65482521057129 L 34.03976821899414 17.073787689208984 Z" fill="none" stroke="#000000" stroke-width="1" />
    <path d="M 32.6613883972168 17.65482521057129 L 31.31368064880371 18.30384635925293 L 32.6613883972168 17.65482521057129 Z" fill="none" stroke="#000000" stroke-width="1" />
    <path d="M 31.31368064880371 18.30384635925293 L 30 19.019237518310547 L 31.31368064880371 18.30384635925293 Z" fill="none" stroke="#000000" stroke-width="1" />
    <path d="M 30 19.019237518310547 L 28.72361183166504 19.799222946166992 L 30 19.019237518310547 Z" fill="none" stroke="#000000" stroke-width="1" />
    <path d="M 28.72361183166504 19.799222946166992 L 27.487689971923828 20.64185905456543 L 28.72361183166504 19.799222946166992 Z" fill="none" stroke="#000000" stroke-width="1" />
    <path d="M 27.487689971923828 20.64185905456543 L 26.295305252075195 21.545055389404297 L 27.487689971923828 20.64185905456543 Z" fill="none" stroke="#000000" stroke-width="1" />
    <path d="M 26.295305252075195 21.545055389404297 L 25.149425506591797 22.506563186645508 L 26.295305252075195 21.545055389404297 Z" fill="none" stroke="#000000" stroke-width="1" />
    <path d="M 25.149425506591797 22.506563186645508 L 24.052894592285156 23.52399444580078 L 24.052894592285156 23.52399444580078 Z" fill="none" stroke="#000000" stroke-width="1" />
    <path d="M 24.052894592285156 23.52399444580078 L 23.00844383239746 24.594818115234375 L 24.052894592285156 23.52399444580078 Z" fill="none" stroke="#000000" stroke-width="1" />
    <path d="M 23.00844383239746 24.594818115234375 L 22.018667221069336 25.716371536254883 L 23.00844383239746 24.594818115234375 Z" fill="none" stroke="#000000" stroke-width="1" />
    <path d="M 22.018667221069336 25.716371536254883 L 21.08602523803711 26.885868072509766 L 22.018667221069336 25.716371536254883 Z" fill="none" stroke="#000000" stroke-width="1" />
    <path d="M 21.08602523803711 26.885868072509766 L 20.21283721923828 28.100399017333984 L 20.21283721923828 28.100399017333984 Z" fill="none" stroke="#000000" stroke-width="1" />
    <path d="M 20.21283721923828 28.100399017333984 L 19.401273727416992 29.356943130493164 L 20.21283721923828 28.100399017333984 Z" fill="none" stroke="#000000" stroke-width="1" />
    <path d="M 19.401273727416992 29.356943130493164 L 18.653352737426758 30.652379989624023 L 18.653352737426758 30.652379989624023 Z" fill="none" stroke="#000000" stroke-width="1" />
    <path d="M 18.653352737426758 30.652379989624023 L 17.97093391418457 31.983488082885742 L 18.653352737426758 30.652379989624023 Z" fill="none" stroke="#000000" stroke-width="1" />
    <path d="M 17.97093391418457 31.983488082885742 L 17.355712890625 33.346954345703125 L 17.355712890625 33.346954345703125 Z" fill="none" stroke="#000000" stroke-width="1" />
    <path d="M 17.355712890625 33.346954345703125 L 16.809221267700195 34.73939514160156 L 17.355712890625 33.346954345703125 Z" fill="none" stroke="#000000" stroke-width="1" />
    <path d="M 16.809221267700195 34.73939514160156 L 16.332815170288086 36.157344818115234 L 16.809221267700195 34.73939514160156 Z" fill="none" stroke="#000000" stroke-width="1" />
    <path d="M 16.332815170288086 36.157344818115234 L 15.927680969238281 37.5972785949707 L 15.927680969238281 37.5972785949707 Z" fill="none" stroke="#000000" stroke-width="1" />
    <path d="M 15.927680969238281 37.5972785949707 L 15.594825744628906 39.05561447143555 L 15.927680969238281 37.5972785949707 Z" fill="none" stroke="#000000" stroke-width="1" />
    <path d="M 15.594825744628906 39.05561447143555 L 15.335075378417969 40.52873229980469 L 15.594825744628906 39.05561447143555 Z" fill="none" stroke="#000000" stroke-width="1" />
    <path d="M 15.335075378417969 40.52873229980469 L 15.149076461791992 42.01296615600586 L 15.335075378417969 40.52873229980469 Z" fill="none" stroke="#000000" stroke-width="1" />
    <path d="M 15.149076461791992 42.01296615600586 L 15.03729248046875 43.50462341308594 L 15.149076461791992 42.01296615600586 Z" fill="none" stroke="#000000" stroke-width="1" />
    <path d="M 15.03729248046875 43.50462341308594 L 15 45 L 15 45 Z" fill="none" stroke="#000000" stroke-width="1" />
    <path d="M 15 45 L 15.03729248046875 46.49537658691406 L 15.03729248046875 46.49537658691406 Z" fill="none" stroke="#000000" stroke-width="1" />
    <path d="M 15.03729248046875 46.49537658691406 L 15.149076461791992 47.98703384399414 L 15.03729248046875 46.49537658691406 Z" fill="none" stroke="#000000" stroke-width="1" />
    <path d="M 15.149076461791992 47.98703384399414 L 15.335075378417969 49.47126770019531 L 15.335075378417969 49.47126770019531 Z" fill="none" stroke="#000000" stroke-width="1" />
    <path d="M 15.335075378417969 49.47126770019531 L 15.594825744628906 50.94438552856445 L 15.594825744628906 50.94438552856445 Z" fill="none" stroke="#000000" stroke-width="1" />
    <path d="M 15.594825744628906 50.94438552856445 L 15.927680969238281 52.4027214050293 L 15.927680969238281 52.4027214050293 Z" fill="none" stroke="#000000" stroke-width="1" />
    <path d="M 15.927680969238281 52.4027214050293 L 16.332815170288086 53.842655181884766 L 15.927680969238281 52.4027214050293 Z" fill="none" stroke="#000000" stroke-width="1" />
    <path d="M 16.332815170288086 53.842655181884766 L 16.809221267700195 55.26060485839844 L 16.809221267700195 55.26060485839844 Z" fill="none" stroke="#000000" stroke-width="1" />
    <path d="M 16.809221267700195 55.26060485839844 L 17.355712890625 56.653045654296875 L 16.809221267700195 55.26060485839844 Z" fill="none" stroke="#000000" stroke-width="1" />
    <path d="M 17.355712890625 56.653045654296875 L 17.97093391418457 58.01651382446289 L 17.355712890625 56.653045654296875 Z" fill="none" stroke="#000000" stroke-width="1" />
    <path d="M 17.97093391418457 58.01651382446289 L 18.653352737426758 59.347618103027344 L 18.653352737426758 59.347618103027344 Z" fill="none" stroke="#000000" stroke-width="1" />
    <path d="M 18.653352737426758 59.347618103027344 L 19.401273727416992 60.6430549621582 L 18.653352737426758 59.347618103027344 Z" fill="none" stroke="#000000" stroke-width="1" />
    <path d="M 19.401273727416992 60.6430549621582 L 20.21283721923828 61.899600982666016 L 19.401273727416992 60.6430549621582 Z" fill="none" stroke="#000000" stroke-width="1" />
    <path d="M 20.21283721923828 61.899600982666016 L 21.08602523803711 63.114131927490234 L 20.21283721923828 61.899600982666016 Z" fill="none" stroke="#000000" stroke-width="1" />
    <path d="M 21.08602523803711 63.114131927490234 L 22.018667221069336 64.28363037109375 L 22.018667221069336 64.28363037109375 Z" fill="none" stroke="#000000" stroke-width="1" />
    <path d="M 22.018667221069336 64.28363037109375 L 23.00844383239746 65.40518188476562 L 22.018667221069336 64.28363037109375 Z" fill="none" stroke="#000000" stroke-width="1" />
    <path d="M 23.00844383239746 65.40518188476562 L 24.052894592285156 66.47600555419922 L 23.00844383239746 65.40518188476562 Z" fill="none" stroke="#000000" stroke-width="1" />
    <path d="M 24.052894592285156 66.47600555419922 L 25.149425506591797 67.49343872070312 L 25.149425506591797 67.49343872070312 Z" fill="none" stroke="#000000" stroke-width="1" />
    <path d="M 25.149425506591797 67.49343872070312 L 26.295305252075195 68.45494079589844 L 25.149425506591797 67.49343872070312 Z" fill="none" stroke="#000000" stroke-width="1" />
    <path d="M 26.295305252075195 68.45494079589844 L 27.487689971923828 69.35813903808594 L 26.295305252075195 68.45494079589844 Z" fill="none" stroke="#000000" stroke-width="1" />
    <path d="M 27.487689971923828 69.35813903808594 L 28.72361183166504 70.20077514648438 L 27.487689971923828 69.35813903808594 Z" fill="none" stroke="#000000" stroke-width="1" />
    <path d="M 28.72361183166504 70.20077514648438 L 30 70.98075866699219 L 30 70.98075866699219 Z" fill="none" stroke="#000000" stroke-width="1" />
    <path d="M 30 70.98075866699219 L 31.31368064880371 71.69615173339844 L 30 70.98075866699219 Z" fill="none" stroke="#000000" stroke-width="1" />
    <path d="M 31.31368064880371 71.69615173339844 L 32.6613883972168 72.34517669677734 L 31.31368064880371 71.69615173339844 Z" fill="none" stroke="#000000" stroke-width="1" />
    <path d="M 32.6613883972168 72.34517669677734 L 34.03976821899414 72.92621612548828 L 32.6613883972168 72.34517669677734 Z" fill="none" stroke="#000000" stroke-width="1" />
    <path d="M 34.03976821899414 72.92621612548828 L 35.44540023803711 73.43782043457031 L 34.03976821899414 72.92621612548828 Z" fill="none" stroke="#000000" stroke-width="1" />
    <path d="M 35.44540023803711 73.43782043457031 L 36.874786376953125 73.87873077392578 L 35.44540023803711 73.43782043457031 Z" fill="none" stroke="#000000" stroke-width="1" />
    <path d="M 36.874786376953125 73.87873077392578 L 38.324371337890625 74.24784088134766 L 36.874786376953125 73.87873077392578 Z" fill="none" stroke="#000000" stroke-width="1" />
    <path d="M 38.324371337890625 74.24784088134766 L 39.79055404663086 74.54423522949219 L 38.324371337890625 74.24784088134766 Z" fill="none" stroke="#000000" stroke-width="1" />
    <path d="M 39.79055404663086 74.54423522949219 L 41.26968765258789 74.76717376708984 L 41.26968765258789 74.76717376708984 Z" fill="none" stroke="#000000" stroke-width="1" />
    <path d="M 41.26968765258789 74.76717376708984 L 42.75809860229492 74.9161148071289 L 41.26968765258789 74.76717376708984 Z" fill="none" stroke="#000000" stroke-width="1" />
    <path d="M 42.75809860229492 74.9161148071289 L 44.252079010009766 74.99067687988281 L 42.75809860229492 74.9161148071289 Z" fill="none" stroke="#000000" stroke-width="1" />
    <path d="M 44.252079010009766 74.99067687988281 L 45.747920989990234 74.99067687988281 L 44.252079010009766 74.99067687988281 Z" fill="none" stroke="#000000" stroke-width="1" />
    <path d="M 45.747920989990234 74.99067687988281 L 47.24190139770508 74.9161148071289 L 45.747920989990234 74.99067687988281 Z" fill="none" stroke="#000000" stroke-width="1" />
    <path d="M 47.24190139770508 74.9161148071289 L 48.73031234741211 74.76717376708984 L 47.24190139770508 74.9161148071289 Z" fill="none" stroke="#000000" stroke-width="1" />
    <path d="M 48.73031234741211 74.76717376708984 L 50.20944595336914 74.54423522949219 L 48.73031234741211 74.76717376708984 Z" fill="none" stroke="#000000" stroke-width="1" />
    <path d="M 50.20944595336914 74.54423522949219 L 51.675628662109375 74.24784088134766 L 50.20944595336914 74.54423522949219 Z" fill="none" stroke="#000000" stroke-width="1" />
    <path d="M 51.675628662109375 74.24784088134766 L 53.125213623046875 73.87873077392578 L 51.675628662109375 74.24784088134766 Z" fill="none" stroke="#000000" stroke-width="1" />
    <path d="M 53.125213623046875 73.87873077392578 L 54.55459976196289 73.43782043457031 L 53.125213623046875 73.87873077392578 Z" fill="none" stroke="#000000" stroke-width="1" />
    <path d="M 54.55459976196289 73.43782043457031 L 55.96023178100586 72.92621612548828 L 54.55459976196289 73.43782043457031 Z" fill="none" stroke="#000000" stroke-width="1" />
    <path d="M 55.96023178100586 72.92621612548828 L 57.3386116027832 72.34517669677734 L 55.96023178100586 72.92621612548828 Z" fill="none" stroke="#000000" stroke-width="1" />
    <path d="M 57.3386116027832 72.34517669677734 L 58.68632125854492 71.69615173339844 L 57.3386116027832 72.34517669677734 Z" fill="none" stroke="#000000" stroke-width="1" />
    <path d="M 58.68632125854492 71.69615173339844 L 60 70.98075866699219 L 60 70.98075866699219 Z" fill="none" stroke="#000000" stroke-width="1" />
    <path d="M 60 70.98075866699219 L 61.27638626098633 70.20077514648438 L 60 70.98075866699219 Z" fill="none" stroke="#000000" stroke-width="1" />
    <path d="M 61.27638626098633 70.20077514648438 L 62.51231002807617 69.35813903808594 L 61.27638626098633 70.20077514648438 Z" fill="none" stroke="#000000" stroke-width="1" />
    <path d="M 62.51231002807617 69.35813903808594 L 63.70469284057617 68.45494079589844 L 62.51231002807617 69.35813903808594 Z" fill="none" stroke="#000000" stroke-width="1" />
    <path d="M 63.70469284057617 68.45494079589844 L 64.85057830810547 67.49343872070312 L 63.70469284057617 68.45494079589844 Z" fill="none" stroke="#000000" stroke-width="1" />
    <path d="M 64.85057830810547 67.49343872070312 L 65.94710540771484 66.47600555419922 L 64.85057830810547 67.49343872070312 Z" fill="none" stroke="#000000" stroke-width="1" />
    <path d="M 65.94710540771484 66.47600555419922 L 66.9915542602539 65.40518188476562 L 65.94710540771484 66.47600555419922 Z" fill="none" stroke="#000000" stroke-width="1" />
    <path d="M 66.9915542602539 65.40518188476562 L 67.98133087158203 64.28363037109375 L 66.9915542602539 65.40518188476562 Z" fill="none" stroke="#000000" stroke-width="1" />
    <path d="M 67.98133087158203 64.28363037109375 L 68.91397857666016 63.114131927490234 L 67.98133087158203 64.28363037109375 Z" fill="none" stroke="#000000" stroke-width="1" />
    <path d="M 68.91397857666016 63.114131927490234 L 69.78716278076172 61.899600982666016 L 68.91397857666016 63.114131927490234 Z" fill="none" stroke="#000000" stroke-width="1" />
    <path d="M 69.78716278076172 61.899600982666016 L 70.59872436523438 60.6430549621582 L 69.78716278076172 61.899600982666016 Z" fill="none" stroke="#000000" stroke-width="1" />
    <path d="M 70.59872436523438 60.6430549621582 L 71.34664916992188 59.347618103027344 L 70.59872436523438 60.6430549621582 Z" fill="none" stroke="#000000" stroke-width="1" />
    <path d="M 71.34664916992188 59.347618103027344 L 72.02906799316406 58.01651382446289 L 71.34664916992188 59.347618103027344 Z" fill="none" stroke="#000000" stroke-width="1" />
    <path d="M 72.02906799316406 58.01651382446289 L 72.644287109375 56.653045654296875 L 72.02906799316406 58.01651382446289 Z" fill="none" stroke="#000000" stroke-width="1" />
    <path d="M 72.644287109375 56.653045654296875 L 73.19078063964844 55.26060485839844 L 72.644287109375 56.653045654296875 Z" fill="none" stroke="#000000" stroke-width="1" />
    <path d="M 73.19078063964844 55.26060485839844 L 73.66718292236328 53.842655181884766 L 73.66718292236328 53.842655181884766 Z" fill="none" stroke="#000000" stroke-width="1" />
    <path d="M 73.66718292236328 53.842655181884766 L 74.07231903076172 52.4027214050293 L 73.66718292236328 53.842655181884766 Z" fill="none" stroke="#000000" stroke-width="1" />
    <path d="M 74.07231903076172 52.4027214050293 L 74.4051742553711 50.94438552856445 L 74.07231903076172 52.4027214050293 Z" fill="none" stroke="#000000" stroke-width="1" />
    <path d="M 74.4051742553711 50.94438552856445 L 74.66492462158203 49.47126770019531 L 74.4051742553711 50.94438552856445 Z" fill="none" stroke="#000000" stroke-width="1" />
    <path d="M 74.66492462158203 49.47126770019531 L 74.85092163085938 47.98703384399414 L 74.66492462158203 49.47126770019531 Z" fill="none" stroke="#000000" stroke-width="1" />
    <path d="M 74.85092163085938 47.98703384399414 L 74.96270751953125 46.49537658691406 L 74.85092163085938 47.98703384399414 Z" fill="none" stroke="#000000" stroke-width="1" />
    <path d="M 74.96270751953125 46.49537658691406 L 75 45 L 75 45 Z" fill="none" stroke="#000000" stroke-width="1" />
    <path d="M -15 -23.038475036621094 L -45 -75 L -15 -23.038475036621094 Z" fill="none" stroke="#000000" stroke-width="1" />
    <path d="M -45 -75 L -75 -23.038475036621094 L -45 -75 Z" fill="none" stroke="#000000" stroke-width="1" />
    <path d="M -75 -23.038475036621094 L -15 -23.038475036621094 L -75 -23.038475036621094 Z" fill="none" stroke="#000000" stroke-width="1" />
    <path d="M 72.55000305175781 -54.270511627197266 L 44.01830291748047 -75 L 72.55000305175781 -54.270511627197266 Z" fill="none" stroke="#000000" stroke-width="1" />
    <path d="M 44.01830291748047 -75 L 15.48660945892334 -54.270511627197266 L 44.01830291748047 -75 Z" fill="none" stroke="#000000" stroke-width="1" />
    <path d="M 15.48660945892334 -54.270511627197266 L 26.384746551513672 -20.729490280151367 L 26.384746551513672 -20.729490280151367 Z" fill="none" stroke="#000000" stroke-width="1" />
    <path d="M 26.384746551513672 -20.729490280151367 L 61.65186309814453 -20.729490280151367 L 61.65186309814453 -20.729490280151367 Z" fill="none" stroke="#000000" stroke-width="1" />
    <path d="M 61.65186309814453 -20.729490280151367 L 72.55000305175781 -54.270511627197266 L 72.55000305175781 -54.270511627197266 Z" fill="none" stroke="#000000" stroke-width="1" />
    <path d="M -75 15 L -85 85 L -75 75 Z" fill="none" stroke="#000000" stroke-width="1" />
    <path d="M -15 75 L -75 75 L -85 85 Z" fill="none" stroke="#000000" stroke-width="1" />
    <path d="M 23.00844383239746 65.40518188476562 L -15 75 L 24.052894592285156 66.47600555419922 Z" fill="none" stroke="#000000" stroke-width="1" />
    <path d="M 25.149425506591797 67.49343872070312 L 24.052894592285156 66.47600555419922 L -15 75 Z" fill="none" stroke="#000000" stroke-width="1" />
    <path d="M 22.018667221069336 64.28363037109375 L -15 75 L 23.00844383239746 65.40518188476562 Z" fill="none" stroke="#000000" stroke-width="1" />
    <path d="M 26.295305252075195 68.45494079589844 L 25.149425506591797 67.49343872070312 L -15 75 Z" fill="none" stroke="#000000" stroke-width="1" />
    <path d="M 21.08602523803711 63.114131927490234 L -15 75 L 22.018667221069336 64.28363037109375 Z" fill="none" stroke="#000000" stroke-width="1" />
    <path d="M 27.487689971923828 69.35813903808594 L 26.295305252075195 68.45494079589844 L -15 75 Z" fill="none" stroke="#000000" stroke-width="1" />
    <path d="M 20.21283721923828 61.899600982666016 L -15 75 L 21.08602523803711 63.114131927490234 Z" fill="none" stroke="#000000" stroke-width="1" />
    <path d="M 28.72361183166504 70.20077514648438 L 27.487689971923828 69.35813903808594 L -15 75 Z" fill="none" stroke="#000000" stroke-width="1" />
    <path d="M 19.401273727416992 60.6430549621582 L -15 75 L 20.21283721923828 61.899600982666016 Z" fill="none" stroke="#000000" stroke-width="1" />
    <path d="M 30 70.98075866699219 L 28.72361183166504 70.20077514648438 L -15 75 Z" fill="none" stroke="#000000" stroke-width="1" />
    <path d="M 18.653352737426758 59.347618103027344 L -15 75 L 19.401273727416992 60.6430549621582 Z" fill="none" stroke="#000000" stroke-width="1" />
    <path d="M 31.31368064880371 71.69615173339844 L 30 70.98075866699219 L -15 75 Z" fill="none" stroke="#000000" stroke-width="1" />
    <path d="M 17.97093391418457 58.01651382446289 L -15 75 L 18.653352737426758 59.347618103027344 Z" fill="none" stroke="#000000" stroke-width="1" />
    <path d="M 32.6613883972168 72.34517669677734 L 31.31368064880371 71.69615173339844 L -15 75 Z" fill="none" stroke="#000000" stroke-width="1" />
    <path d="M 17.355712890625 56.653045654296875 L -15 75 L 17.97093391418457 58.01651382446289 Z" fill="none" stroke="#000000" stroke-width="1" />
    <path d="M 34.03976821899414 72.92621612548828 L 32.6613883972168 72.34517669677734 L -15 75 Z" fill="none" stroke="#000000" stroke-width="1" />
    <path d="M 16.809221267700195 55.26060485839844 L -15 75 L 17.355712890625 56.653045654296875 Z" fill="none" stroke="#000000" stroke-width="1" />
    <path d="M 35.44540023803711 73.43782043457031 L 34.03976821899414 72.92621612548828 L -15 75 Z" fill="none" stroke="#000000" stroke-width="1" />
    <path d="M 16.332815170288086 53.842655181884766 L -15 75 L 16.809221267700195 55.26060485839844 Z" fill="none" stroke="#000000" stroke-width="1" />
    <path d="M 36.874786376953125 73.87873077392578 L 35.44540023803711 73.43782043457031 L -15 75 Z" fill="none" stroke="#000000" stroke-width="1" />
    <path d="M 15.927680969238281 52.4027214050293 L -15 75 L 16.332815170288086 53.842655181884766 Z" fill="none" stroke="#000000" stroke-width="1" />
    <path d="M 38.324371337890625 74.24784088134766 L 36.874786376953125 73.87873077392578 L -15 75 Z" fill="none" stroke="#000000" stroke-width="1" />
    <path d="M 15.594825744628906 50.94438552856445 L -15 75 L 15.927680969238281 52.4027214050293 Z" fill="none" stroke="#000000" stroke-width="1" />
    <path d="M 39.79055404663086 74.54423522949219 L 38.324371337890625 74.24784088134766 L -15 75 Z" fill="none" stroke="#000000" stroke-width="1" />
    <path d="M 15.335075378417969 49.47126770019531 L -15 75 L 15.594825744628906 50.94438552856445 Z" fill="none" stroke="#000000" stroke-width="1" />
    <path d="M 41.26968765258789 74.76717376708984 L 39.79055404663086 74.54423522949219 L -15 75 Z" fill="none" stroke="#000000" stroke-width="1" />
    <path d="M 15.149076461791992 47.98703384399414 L -15 75 L 15.335075378417969 49.47126770019531 Z" fill="none" stroke="#000000" stroke-width="1" />
    <path d="M 15.03729248046875 46.49537658691406 L -15 75 L 15.149076461791992 47.98703384399414 Z" fill="none" stroke="#000000" stroke-width="1" />
    <path d="M 15 45 L -15 75 L 15.03729248046875 46.49537658691406 Z" fill="none" stroke="#000000" stroke-width="1" />
    <path d="M -15 15 L -15 75 L 15 45 Z" fill="none" stroke="#000000" stroke-width="1" />
    <path d="M 15.03729248046875 43.50462341308594 L -15 15 L 15 45 Z" fill="none" stroke="#000000" stroke-width="1" />
    <path d="M 15.149076461791992 42.01296615600586 L -15 15 L 15.03729248046875 43.50462341308594 Z" fill="none" stroke="#000000" stroke-width="1" />
    <path d="M 15.335075378417969 40.52873229980469 L -15 15 L 15.149076461791992 42.01296615600586 Z" fill="none" stroke="#000000" stroke-width="1" />
    <path d="M 15.594825744628906 39.05561447143555 L -15 15 L 15.335075378417969 40.52873229980469 Z" fill="none" stroke="#000000" stroke-width="1" />
    <path d="M 15.927680969238281 37.5972785949707 L -15 15 L 15.594825744628906 39.05561447143555 Z" fill="none" stroke="#000000" stroke-width="1" />
    <path d="M 16.332815170288086 36.157344818115234 L -15 15 L 15.927680969238281 37.5972785949707 Z" fill="none" stroke="#000000" stroke-width="1" />
    <path d="M 16.809221267700195 34.73939514160156 L -15 15 L 16.332815170288086 36.157344818115234 Z" fill="none" stroke="#000000" stroke-width="1" />
    <path d="M 17.355712890625 33.346954345703125 L -15 15 L 16.809221267700195 34.73939514160156 Z" fill="none" stroke="#000000" stroke-width="1" />
    <path d="M 17.97093391418457 31.983488082885742 L -15 15 L 17.355712890625 33.346954345703125 Z" fill="none" stroke="#000000" stroke-width="1" />
    <path d="M 18.653352737426758 30.652379989624023 L -15 15 L 17.97093391418457 31.983488082885742 Z" fill="none" stroke="#000000" stroke-width="1" />
    <path d="M 19.401273727416992 29.356943130493164 L -15 15 L 18.653352737426758 30.652379989624023 Z" fill="none" stroke="#000000" stroke-width="1" />
    <path d="M 20.21283721923828 28.100399017333984 L -15 15 L 19.401273727416992 29.356943130493164 Z" fill="none" stroke="#000000" stroke-width="1" />
    <path d="M 21.08602523803711 26.885868072509766 L -15 15 L 20.21283721923828 28.100399017333984 Z" fill="none" stroke="#000000" stroke-width="1" />
    <path d="M 22.018667221069336 25.716371536254883 L -15 15 L 21.08602523803711 26.885868072509766 Z" fill="none" stroke="#000000" stroke-width="1" />
    <path d="M 23.00844383239746 24.594818115234375 L -15 15 L 22.018667221069336 25.716371536254883 Z" fill="none" stroke="#000000" stroke-width="1" />
    <path d="M 85 85 L 42.75809860229492 74.9161148071289 L 41.26968765258789 74.76717376708984 Z" fill="none" stroke="#000000" stroke-width="1" />
    <path d="M 85 85 L 44.252079010009766 74.99067687988281 L 42.75809860229492 74.9161148071289 Z" fill="none" stroke="#000000" stroke-width="1" />
    <path d="M 85 85 L 45.747920989990234 74.99067687988281 L 44.252079010009766 74.99067687988281 Z" fill="none" stroke="#000000" stroke-width="1" />
    <path d="M 85 85 L 47.24190139770508 74.9161148071289 L 45.747920989990234 74.99067687988281 Z" fill="none" stroke="#000000" stroke-width="1" />
    <path d="M 85 85 L 48.73031234741211 74.76717376708984 L 47.24190139770508 74.9161148071289 Z" fill="none" stroke="#000000" stroke-width="1" />
    <path d="M 85 85 L 50.20944595336914 74.54423522949219 L 48.73031234741211 74.76717376708984 Z" fill="none" stroke="#000000" stroke-width="1" />
    <path d="M 85 85 L 51.675628662109375 74.24784088134766 L 50.20944595336914 74.54423522949219 Z" fill="none" stroke="#000000" stroke-width="1" />
    <path d="M 85 85 L 53.125213623046875 73.87873077392578 L 51.675628662109375 74.24784088134766 Z" fill="none" stroke="#000000" stroke-width="1" />
    <path d="M 85 85 L 54.55459976196289 73.43782043457031 L 53.125213623046875 73.87873077392578 Z" fill="none" stroke="#000000" stroke-width="1" />
    <path d="M 85 85 L 55.96023178100586 72.92621612548828 L 54.55459976196289 73.43782043457031 Z" fill="none" stroke="#000000" stroke-width="1" />
    <path d="M 85 85 L 57.3386116027832 72.34517669677734 L 55.96023178100586 72.92621612548828 Z" fill="none" stroke="#000000" stroke-width="1" />
    <path d="M 85 85 L 41.26968765258789 74.76717376708984 L -15 75 Z" fill="none" stroke="#000000" stroke-width="1" />
    <path d="M 85 85 L 58.68632125854492 71.69615173339844 L 57.3386116027832 72.34517669677734 Z" fill="none" stroke="#000000" stroke-width="1" />
    <path d="M 85 85 L 60 70.98075866699219 L 58.68632125854492 71.69615173339844 Z" fill="none" stroke="#000000" stroke-width="1" />
    <path d="M 85 85 L 61.27638626098633 70.20077514648438 L 60 70.98075866699219 Z" fill="none" stroke="#000000" stroke-width="1" />
    <path d="M 85 85 L 62.51231002807617 69.35813903808594 L 61.27638626098633 70.20077514648438 Z" fill="none" stroke="#000000" stroke-width="1" />
    <path d="M 85 85 L 63.70469284057617 68.45494079589844 L 62.51231002807617 69.35813903808594 Z" fill="none" stroke="#000000" stroke-width="1" />
    <path d="M 85 85 L 64.85057830810547 67.49343872070312 L 63.70469284057617 68.45494079589844 Z" fill="none" stroke="#000000" stroke-width="1" />
    <path d="M 85 85 L 65.94710540771484 66.47600555419922 L 64.85057830810547 67.49343872070312 Z" fill="none" stroke="#000000" stroke-width="1" />
    <path d="M 85 85 L -15 75 L -85 85 Z" fill="none" stroke="#000000" stroke-width="1" />
    <path d="M 24.052894592285156 23.52399444580078 L -15 15 L 23.00844383239746 24.594818115234375 Z" fill="none" stroke="#000000" stroke-width="1" />
    <path d="M 66.9915542602539 65.40518188476562 L 65.94710540771484 66.47600555419922 L 85 85 Z" fill="none" stroke="#000000" stroke-width="1" />
    <path d="M 25.149425506591797 22.506563186645508 L -15 15 L 24.052894592285156 23.52399444580078 Z" fill="none" stroke="#000000" stroke-width="1" />
    <path d="M 67.98133087158203 64.28363037109375 L 66.9915542602539 65.40518188476562 L 85 85 Z" fill="none" stroke="#000000" stroke-width="1" />
    <path d="M 26.295305252075195 21.545055389404297 L -15 15 L 25.149425506591797 22.506563186645508 Z" fill="none" stroke="#000000" stroke-width="1" />
    <path d="M 68.91397857666016 63.114131927490234 L 67.98133087158203 64.28363037109375 L 85 85 Z" fill="none" stroke="#000000" stroke-width="1" />
    <path d="M 69.78716278076172 61.899600982666016 L 68.91397857666016 63.114131927490234 L 85 85 Z" fill="none" stroke="#000000" stroke-width="1" />
    <path d="M -15 -23.038475036621094 L -75 15 L -15 15 Z" fill="none" stroke="#000000" stroke-width="1" />
    <path d="M -15 -23.038475036621094 L -75 -23.038475036621094 L -75 15 Z" fill="none" stroke="#000000" stroke-width="1" />
    <path d="M 70.59872436523438 60.6430549621582 L 69.78716278076172 61.899600982666016 L 85 85 Z" fill="none" stroke="#000000" stroke-width="1" />
    <path d="M 71.34664916992188 59.347618103027344 L 70.59872436523438 60.6430549621582 L 85 85 Z" fill="none" stroke="#000000" stroke-width="1" />
    <path d="M 72.02906799316406 58.01651382446289 L 71.34664916992188 59.347618103027344 L 85 85 Z" fill="none" stroke="#000000" stroke-width="1" />
    <path d="M 72.644287109375 56.653045654296875 L 72.02906799316406 58.01651382446289 L 85 85 Z" fill="none" stroke="#000000" stroke-width="1" />
    <path d="M 73.19078063964844 55.26060485839844 L 72.644287109375 56.653045654296875 L 85 85 Z" fill="none" stroke="#000000" stroke-width="1" />
    <path d="M 73.66718292236328 53.842655181884766 L 73.19078063964844 55.26060485839844 L 85 85 Z" fill="none" stroke="#000000" stroke-width="1" />
    <path d="M 74.07231903076172 52.4027214050293 L 73.66718292236328 53.842655181884766 L 85 85 Z" fill="none" stroke="#000000" stroke-width="1" />
    <path d="M 74.4051742553711 50.94438552856445 L 74.07231903076172 52.4027214050293 L 85 85 Z" fill="none" stroke="#000000" stroke-width="1" />
    <path d="M 74.66492462158203 49.47126770019531 L 74.4051742553711 50.94438552856445 L 85 85 Z" fill="none" stroke="#000000" stroke-width="1" />
    <path d="M 74.85092163085938 47.98703384399414 L 74.66492462158203 49.47126770019531 L 85 85 Z" fill="none" stroke="#000000" stroke-width="1" />
    <path d="M 74.96270751953125 46.49537658691406 L 74.85092163085938 47.98703384399414 L 85 85 Z" fill="none" stroke="#000000" stroke-width="1" />
    <path d="M -45 -75 L -85 -85 L -75 -23.038475036621094 Z" fill="none" stroke="#000000" stroke-width="1" />
    <path d="M 75 45 L 74.96270751953125 46.49537658691406 L 85 85 Z" fill="none" stroke="#000000" stroke-width="1" />
    <path d="M 74.96270751953125 43.50462341308594 L 75 45 L 85 85 Z" fill="none" stroke="#000000" stroke-width="1" />
    <path d="M 74.85092163085938 42.01296615600586 L 74.96270751953125 43.50462341308594 L 85 85 Z" fill="none" stroke="#000000" stroke-width="1" />
    <path d="M 74.66492462158203 40.52873229980469 L 74.85092163085938 42.01296615600586 L 85 85 Z" fill="none" stroke="#000000" stroke-width="1" />
    <path d="M 26.384746551513672 -20.729490280151367 L -15 -23.038475036621094 L -15 15 Z" fill="none" stroke="#000000" stroke-width="1" />
    <path d="M 26.384746551513672 -20.729490280151367 L 42.75809860229492 15.08388614654541 L 44.252079010009766 15.009324073791504 Z" fill="none" stroke="#000000" stroke-width="1" />
    <path d="M 26.384746551513672 -20.729490280151367 L 41.26968765258789 15.232823371887207 L 42.75809860229492 15.08388614654541 Z" fill="none" stroke="#000000" stroke-width="1" />
    <path d="M 26.384746551513672 -20.729490280151367 L 39.79055404663086 15.455767631530762 L 41.26968765258789 15.232823371887207 Z" fill="none" stroke="#000000" stroke-width="1" />
    <path d="M 26.384746551513672 -20.729490280151367 L 38.324371337890625 15.75216293334961 L 39.79055404663086 15.455767631530762 Z" fill="none" stroke="#000000" stroke-width="1" />
    <path d="M 26.384746551513672 -20.729490280151367 L 36.874786376953125 16.121273040771484 L 38.324371337890625 15.75216293334961 Z" fill="none" stroke="#000000" stroke-width="1" />
    <path d="M 26.384746551513672 -20.729490280151367 L 35.44540023803711 16.562179565429688 L 36.874786376953125 16.121273040771484 Z" fill="none" stroke="#000000" stroke-width="1" />
    <path d="M 26.384746551513672 -20.729490280151367 L 34.03976821899414 17.073787689208984 L 35.44540023803711 16.562179565429688 Z" fill="none" stroke="#000000" stroke-width="1" />
    <path d="M 26.384746551513672 -20.729490280151367 L 32.6613883972168 17.65482521057129 L 34.03976821899414 17.073787689208984 Z" fill="none" stroke="#000000" stroke-width="1" />
    <path d="M 26.384746551513672 -20.729490280151367 L 31.31368064880371 18.30384635925293 L 32.6613883972168 17.65482521057129 Z" fill="none" stroke="#000000" stroke-width="1" />
    <path d="M 26.384746551513672 -20.729490280151367 L 30 19.019237518310547 L 31.31368064880371 18.30384635925293 Z" fill="none" stroke="#000000" stroke-width="1" />
    <path d="M 26.384746551513672 -20.729490280151367 L 28.72361183166504 19.799222946166992 L 30 19.019237518310547 Z" fill="none" stroke="#000000" stroke-width="1" />
    <path d="M 26.384746551513672 -20.729490280151367 L 27.487689971923828 20.64185905456543 L 28.72361183166504 19.799222946166992 Z" fill="none" stroke="#000000" stroke-width="1" />
    <path d="M 26.384746551513672 -20.729490280151367 L 26.295305252075195 21.545055389404297 L 27.487689971923828 20.64185905456543 Z" fill="none" stroke="#000000" stroke-width="1" />
    <path d="M 26.384746551513672 -20.729490280151367 L -15 15 L 26.295305252075195 21.545055389404297 Z" fill="none" stroke="#000000" stroke-width="1" />
    <path d="M 15.48660945892334 -54.270511627197266 L -45 -75 L -15 -23.038475036621094 Z" fill="none" stroke="#000000" stroke-width="1" />
    <path d="M 15.48660945892334 -54.270511627197266 L -15 -23.038475036621094 L 26.384746551513672 -20.729490280151367 Z" fill="none" stroke="#000000" stroke-width="1" />
    <path d="M 61.65186309814453 -20.729490280151367 L 70.59872436523438 29.356943130493164 L 71.34664916992188 30.652379989624023 Z" fill="none" stroke="#000000" stroke-width="1" />
    <path d="M 61.65186309814453 -20.729490280151367 L 69.78716278076172 28.100399017333984 L 70.59872436523438 29.356943130493164 Z" fill="none" stroke="#000000" stroke-width="1" />
    <path d="M 61.65186309814453 -20.729490280151367 L 68.91397857666016 26.885868072509766 L 69.78716278076172 28.100399017333984 Z" fill="none" stroke="#000000" stroke-width="1" />
    <path d="M 61.65186309814453 -20.729490280151367 L 67.98133087158203 25.716371536254883 L 68.91397857666016 26.885868072509766 Z" fill="none" stroke="#000000" stroke-width="1" />
    <path d="M 61.65186309814453 -20.729490280151367 L 66.9915542602539 24.594818115234375 L 67.98133087158203 25.716371536254883 Z" fill="none" stroke="#000000" stroke-width="1" />
    <path d="M 61.65186309814453 -20.729490280151367 L 65.94710540771484 23.52399444580078 L 66.9915542602539 24.594818115234375 Z" fill="none" stroke="#000000" stroke-width="1" />
    <path d="M 61.65186309814453 -20.729490280151367 L 64.85057830810547 22.506563186645508 L 65.94710540771484 23.52399444580078 Z" fill="none" stroke="#000000" stroke-width="1" />
    <path d="M 61.65186309814453 -20.729490280151367 L 63.70469284057617 21.545055389404297 L 64.85057830810547 22.506563186645508 Z" fill="none" stroke="#000000" stroke-width="1" />
    <path d="M 61.65186309814453 -20.729490280151367 L 62.51231002807617 20.64185905456543 L 63.70469284057617 21.545055389404297 Z" fill="none" stroke="#000000" stroke-width="1" />
    <path d="M 61.65186309814453 -20.729490280151367 L 61.27638626098633 19.799222946166992 L 62.51231002807617 20.64185905456543 Z" fill="none" stroke="#000000" stroke-width="1" />
    <path d="M 61.65186309814453 -20.729490280151367 L 60 19.019237518310547 L 61.27638626098633 19.799222946166992 Z" fill="none" stroke="#000000" stroke-width="1" />
    <path d="M 61.65186309814453 -20.729490280151367 L 58.68632125854492 18.30384635925293 L 60 19.019237518310547 Z" fill="none" stroke="#000000" stroke-width="1" />
    <path d="M 61.65186309814453 -20.729490280151367 L 57.3386116027832 17.65482521057129 L 58.68632125854492 18.30384635925293 Z" fill="none" stroke="#000000" stroke-width="1" />
    <path d="M 61.65186309814453 -20.729490280151367 L 55.96023178100586 17.073787689208984 L 57.3386116027832 17.65482521057129 Z" fill="none" stroke="#000000" stroke-width="1" />
    <path d="M 61.65186309814453 -20.729490280151367 L 54.55459976196289 16.562179565429688 L 55.96023178100586 17.073787689208984 Z" fill="none" stroke="#000000" stroke-width="1" />
    <path d="M 61.65186309814453 -20.729490280151367 L 53.125213623046875 16.121273040771484 L 54.55459976196289 16.562179565429688 Z" fill="none" stroke="#000000" stroke-width="1" />
    <path d="M 61.65186309814453 -20.729490280151367 L 51.675628662109375 15.75216293334961 L 53.125213623046875 16.121273040771484 Z" fill="none" stroke="#000000" stroke-width="1" />
    <path d="M 61.65186309814453 -20.729490280151367 L 50.20944595336914 15.455767631530762 L 51.675628662109375 15.75216293334961 Z" fill="none" stroke="#000000" stroke-width="1" />
    <path d="M 61.65186309814453 -20.729490280151367 L 48.73031234741211 15.232823371887207 L 50.20944595336914 15.455767631530762 Z" fill="none" stroke="#000000" stroke-width="1" />
    <path d="M 61.65186309814453 -20.729490280151367 L 47.24190139770508 15.08388614654541 L 48.73031234741211 15.232823371887207 Z" fill="none" stroke="#000000" stroke-width="1" />
    <path d="M 61.65186309814453 -20.729490280151367 L 26.384746551513672 -20.729490280151367 L 44.252079010009766 15.009324073791504 Z" fill="none" stroke="#000000" stroke-width="1" />
    <path d="M 61.65186309814453 -20.729490280151367 L 45.747920989990234 15.009324073791504 L 47.24190139770508 15.08388614654541 Z" fill="none" stroke="#000000" stroke-width="1" />
    <path d="M 61.65186309814453 -20.729490280151367 L 44.252079010009766 15.009324073791504 L 45.747920989990234 15.009324073791504 Z" fill="none" stroke="#000000" stroke-width="1" />
    <path d="M 44.01830291748047 -75 L -45 -75 L 15.48660945892334 -54.270511627197266 Z" fill="none" stroke="#000000" stroke-width="1" />
    <path d="M 72.55000305175781 -54.270511627197266 L 61.65186309814453 -20.729490280151367 L 71.34664916992188 30.652379989624023 Z" fill="none" stroke="#000000" stroke-width="1" />
    <path d="M 72.55000305175781 -54.270511627197266 L 73.19078063964844 34.73939514160156 L 73.66718292236328 36.157344818115234 Z" fill="none" stroke="#000000" stroke-width="1" />
    <path d="M 72.55000305175781 -54.270511627197266 L 72.644287109375 33.346954345703125 L 73.19078063964844 34.73939514160156 Z" fill="none" stroke="#000000" stroke-width="1" />
    <path d="M 72.55000305175781 -54.270511627197266 L 72.02906799316406 31.983488082885742 L 72.644287109375 33.346954345703125 Z" fill="none" stroke="#000000" stroke-width="1" />
    <path d="M 72.55000305175781 -54.270511627197266 L 71.34664916992188 30.652379989624023 L 72.02906799316406 31.983488082885742 Z" fill="none" stroke="#000000" stroke-width="1" />
    <path d="M 85 -85 L 72.55000305175781 -54.270511627197266 L 73.66718292236328 36.157344818115234 Z" fill="none" stroke="#000000" stroke-width="1" />
    <path d="M 85 -85 L 74.4051742553711 39.05561447143555 L 74.66492462158203 40.52873229980469 Z" fill="none" stroke="#000000" stroke-width="1" />
    <path d="M 85 -85 L 74.07231903076172 37.5972785949707 L 74.4051742553711 39.05561447143555 Z" fill="none" stroke="#000000" stroke-width="1" />
    <path d="M 85 -85 L 73.66718292236328 36.157344818115234 L 74.07231903076172 37.5972785949707 Z" fill="none" stroke="#000000" stroke-width="1" />
    <path d="M 85 -85 L 44.01830291748047 -75 L 72.55000305175781 -54.270511627197266 Z" fill="none" stroke="#000000" stroke-width="1" />
    <path d="M -85 -85 L -85 85 L -75 15 Z" fill="none" stroke="#000000" stroke-width="1" />
    <path d="M -85 -85 L -75 15 L -75 -23.038475036621094 Z" fill="none" stroke="#000000" stroke-width="1" />
    <path d="M 85 85 L 85 -85 L 74.66492462158203 40.52873229980469 Z" fill="none" stroke="#000000" stroke-width="1" />
    <path d="M 85 -85 L -85 -85 L -45 -75 Z" fill="none" stroke="#000000" stroke-width="1" />
    <path d="M 85 -85 L -45 -75 L 44.01830291748047 -75 Z" fill="none" stroke="#000000" stroke-width="1" />
  </g>
</svg>